<svg xmlns="http://www.w3.org/2000/svg" version="1.1" xmlns:xlink="http://www.w3.org/1999/xlink" xmlns:svgjs="http://svgjs.dev/svgjs" viewBox="0 -14.692 426.69207382812505 416.400984375"><style>text.label { fill:gray; }</style><rect width="98.97265625" height="26.341796875" x="148.279296875" y="0" fill="white" stroke="black"></rect><text x="159.1171875" y="17.3779296875" font-family="Helvetica" font-size="12" svgjs:data="{&quot;leading&quot;:&quot;1.3&quot;}"><tspan dy="0" x="159.1171875" svgjs:data="{&quot;newLined&quot;:true}">User Interface</tspan></text><rect width="127.765625" height="26.341796875" x="0" y="152.68359375" fill="white" stroke="black"></rect><text x="12.0390625" y="170.0615234375" font-family="Helvetica" font-size="12" svgjs:data="{&quot;leading&quot;:&quot;1.3&quot;}"><tspan dy="0" x="12.0390625" svgjs:data="{&quot;newLined&quot;:true}">Notification Service</tspan></text><rect width="123.998046875" height="26.341796875" x="135.7666015625" y="76.341796875" fill="white" stroke="black"></rect><text x="146.43359375" y="93.7197265625" font-family="Helvetica" font-size="12" svgjs:data="{&quot;leading&quot;:&quot;1.3&quot;}"><tspan dy="0" x="146.43359375" svgjs:data="{&quot;newLined&quot;:true}">Mobile Application</tspan></text><path d="M179.179475 170.9307921875C184.652975 172.68969218750001 190.126475 172.6857921875 195.599975 170.9194921875M179.882775 160.4224921875C185.497775 161.8804921875 190.927775 161.7904921875 196.033775 160.4954921875M178.108675 165.8503921875C184.685775 167.5622921875 191.090475 167.1486921875 197.422575 165.8390921875M197.422575 165.8390921875C197.422575 171.3618921875 193.31437499999998 175.4701921875 187.791475 175.4701921875C182.268675 175.4701921875 178.129675 171.3619921875 178.129675 165.8390921875C178.129675 160.3162921875 182.268675 156.2387921875 187.791475 156.2387921875C193.31437499999998 156.2387921875 197.422575 160.3162921875 197.422575 165.8390921875Z " fill="white" stroke="black"></path><svg width="2" height="0" style="opacity: 0; position: absolute; left: -100%; top: -100%; overflow: hidden;" focusable="false" aria-hidden="true"><path d="M362.904084375 0C368.377584375 1.7589 373.851084375 1.755 379.32458437500003 -0.0113M363.60738437500004 -10.5083C369.22238437500005 -9.0503 374.652384375 -9.1403 379.75838437500005 -10.4353M361.833284375 -5.0804C368.41038437500004 -3.3685 374.815084375 -3.7821 381.14718437500005 -5.0917M381.14718437500005 -5.0917C381.14718437500005 0.4310999999999998 377.03898437500004 4.5394 371.51608437500005 4.5394C365.99328437500003 4.5394 361.854284375 0.4311999999999996 361.854284375 -5.0917C361.854284375 -10.6145 365.99328437500003 -14.692 371.51608437500005 -14.692C377.03898437500004 -14.692 381.14718437500005 -10.6145 381.14718437500005 -5.0916999999999994Z "></path></svg><text x="198.2738609375" y="170.0615234375" font-family="Helvetica" font-size="11" svgjs:data="{&quot;leading&quot;:&quot;1.3&quot;}"><tspan dy="0" x="198.2738609375" svgjs:data="{&quot;newLined&quot;:true}">Maps API</tspan></text><rect width="93.27734375" height="26.341796875" x="141.126953125" y="229.025390625" fill="white" stroke="black"></rect><text x="149.9140625" y="246.4033203125" font-family="Helvetica" font-size="12" svgjs:data="{&quot;leading&quot;:&quot;1.3&quot;}"><tspan dy="0" x="149.9140625" svgjs:data="{&quot;newLined&quot;:true}">Google Maps</tspan></text><path d="M293.5417796875 170.9307921875C299.0152796875 172.68969218750001 304.4887796875 172.6857921875 309.96227968750003 170.9194921875M294.24507968750004 160.4224921875C299.86007968750005 161.8804921875 305.2900796875 161.7904921875 310.39607968750005 160.4954921875M292.4709796875 165.8503921875C299.04807968750004 167.5622921875 305.4527796875 167.1486921875 311.78487968750005 165.8390921875M311.78487968750005 165.8390921875C311.78487968750005 171.3618921875 307.67667968750004 175.4701921875 302.15377968750005 175.4701921875C296.63097968750003 175.4701921875 292.4919796875 171.3619921875 292.4919796875 165.8390921875C292.4919796875 160.3162921875 296.63097968750003 156.2387921875 302.15377968750005 156.2387921875C307.67667968750004 156.2387921875 311.78487968750005 160.3162921875 311.78487968750005 165.8390921875Z " fill="white" stroke="black"></path><text x="319.65765000000005" y="170.0615234375" font-family="Helvetica" font-size="11" svgjs:data="{&quot;leading&quot;:&quot;1.3&quot;}"><tspan dy="0" x="319.65765000000005" svgjs:data="{&quot;newLined&quot;:true}">API</tspan></text><rect width="84.171875" height="26.341796875" x="294.404296875" y="229.025390625" fill="white" stroke="black"></rect><text x="303.708984375" y="246.4033203125" font-family="Helvetica" font-size="12" svgjs:data="{&quot;leading&quot;:&quot;1.3&quot;}"><tspan dy="0" x="303.708984375" svgjs:data="{&quot;newLined&quot;:true}">Web Server</tspan></text><path d="M291.46841766470016 305.1620496718023C291.4364176647002 301.82774967180234 311.49371766470017 302.2999496718023 311.51241766470014 305.0592496718023C311.43631766470014 309.4961496718023 291.36921766470016 309.3025496718023 291.46841766470016 305.1620496718023ZM291.49781766470016 305.8081496718023C293.64851766470014 308.8684496718023 308.89251766470016 309.1804496718023 311.49781766470016 305.8081496718023V325.8081496718023C304.96461766470014 328.47654967180233 298.31131766470014 328.74394967180234 291.49781766470016 325.8081496718023Z " fill="white" stroke="black"></path><text x="320.0922181419003" y="319.57421875" font-family="Helvetica" font-size="11" svgjs:data="{&quot;leading&quot;:&quot;1.3&quot;}"><tspan dy="0" x="320.0922181419003" svgjs:data="{&quot;newLined&quot;:true}">DB</tspan></text><rect width="102.201171875" height="26.341796875" x="285.3896484375" y="375.3671875" fill="white" stroke="black"></rect><text x="295.689453125" y="392.7451171875" font-family="Helvetica" font-size="12" svgjs:data="{&quot;leading&quot;:&quot;1.3&quot;}"><tspan dy="0" x="295.689453125" svgjs:data="{&quot;newLined&quot;:true}">Authentication</tspan></text><path d="M362.904084375 320.4434875C368.377584375 322.2023875 373.851084375 322.1984875 379.32458437500003 320.4321875M363.60738437500004 309.9351875C369.22238437500005 311.3931875 374.652384375 311.3031875 379.75838437500005 310.0081875M361.833284375 315.3630875C368.41038437500004 317.0749875 374.815084375 316.6613875 381.14718437500005 315.3517875M381.14718437500005 315.3517875C381.14718437500005 320.8745875 377.03898437500004 324.9828875 371.51608437500005 324.9828875C365.99328437500003 324.9828875 361.854284375 320.8746875 361.854284375 315.3517875C361.854284375 309.8289875 365.99328437500003 305.7514875 371.51608437500005 305.7514875C377.03898437500004 305.7514875 381.14718437500005 309.8289875 381.14718437500005 315.3517875Z " fill="white" stroke="black"></path><text x="382.83709335937505" y="319.57421875" font-family="Helvetica" font-size="11" svgjs:data="{&quot;leading&quot;:&quot;1.3&quot;}"><tspan dy="0" x="382.83709335937505" svgjs:data="{&quot;newLined&quot;:true}">Auth API</tspan></text><g><polyline points="149.56925556291094,26.341796875 61.8828125,51.341796875 61.8828125,89.5126953125 61.8828125,127.68359375 61.8828125,152.68359375" stroke-width="0.25" stroke="black" fill="none" marker-end="url(#SvgjsMarker1000)"></polyline><polyline points="65.8828125,152.68359375 65.8828125,127.68359375 65.8828125,89.5126953125 65.8828125,51.341796875 153.56925556291094,26.341796875" stroke-width="0.25" stroke="black" fill="none" stroke-dasharray="2" marker-end="url(#SvgjsMarker1001)"></polyline></g><defs><marker markerWidth="40" markerHeight="30" refX="20" refY="15" viewBox="0 0 40 30" orient="auto" id="SvgjsMarker1000"><path d="m 0 0 l 20 15 l -20 15 a 7.5 1 90 0 0 0 -30 z" fill="black" stroke-width="0.1" stroke="black"></path></marker><marker markerWidth="40" markerHeight="30" refX="20" refY="15" viewBox="0 0 40 30" orient="auto" id="SvgjsMarker1001"><path d="m 0 0 l 20 15 l -20 15 a 7.5 1 90 0 0 0 -30 z" fill="black" stroke-width="0.1" stroke="black"></path></marker><marker markerWidth="40" markerHeight="30" refX="20" refY="15" viewBox="0 0 40 30" orient="auto" id="SvgjsMarker1002"><path d="m 0 0 l 20 15 l -20 15 a 7.5 1 90 0 0 0 -30 z" fill="black" stroke-width="0.1" stroke="black"></path></marker><marker markerWidth="40" markerHeight="30" refX="20" refY="15" viewBox="0 0 40 30" orient="auto" id="SvgjsMarker1003"><path d="m 0 0 l 20 15 l -20 15 a 7.5 1 90 0 0 0 -30 z" fill="black" stroke-width="0.1" stroke="black"></path></marker><marker markerWidth="40" markerHeight="30" refX="20" refY="15" viewBox="0 0 40 30" orient="auto" id="SvgjsMarker1004"><path d="m 0 0 l 20 15 l -20 15 a 7.5 1 90 0 0 0 -30 z" fill="black" stroke-width="0.1" stroke="black"></path></marker><marker markerWidth="40" markerHeight="30" refX="20" refY="15" viewBox="0 0 40 30" orient="auto" id="SvgjsMarker1005"><path d="m 0 0 l 20 15 l -20 15 a 7.5 1 90 0 0 0 -30 z" fill="black" stroke-width="0.1" stroke="black"></path></marker><marker markerWidth="40" markerHeight="30" refX="20" refY="15" viewBox="0 0 40 30" orient="auto" id="SvgjsMarker1006"><path d="m 0 0 l 20 15 l -20 15 a 7.5 1 90 0 0 0 -30 z" fill="black" stroke-width="0.1" stroke="black"></path></marker><marker markerWidth="40" markerHeight="30" refX="20" refY="15" viewBox="0 0 40 30" orient="auto" id="SvgjsMarker1007"><path d="m 0 0 l 20 15 l -20 15 a 7.5 1 90 0 0 0 -30 z" fill="black" stroke-width="0.1" stroke="black"></path></marker><marker markerWidth="40" markerHeight="30" refX="20" refY="15" viewBox="0 0 40 30" orient="auto" id="SvgjsMarker1008"><path d="m 0 0 l 20 15 l -20 15 a 7.5 1 90 0 0 0 -30 z" fill="black" stroke-width="0.1" stroke="black"></path></marker><marker markerWidth="40" markerHeight="30" refX="20" refY="15" viewBox="0 0 40 30" orient="auto" id="SvgjsMarker1009"><path d="m 0 0 l 20 15 l -20 15 a 7.5 1 90 0 0 0 -30 z" fill="black" stroke-width="0.1" stroke="black"></path></marker><marker markerWidth="40" markerHeight="30" refX="20" refY="15" viewBox="0 0 40 30" orient="auto" id="SvgjsMarker1010"><path d="m 0 0 l 20 15 l -20 15 a 7.5 1 90 0 0 0 -30 z" fill="black" stroke-width="0.1" stroke="black"></path></marker><marker markerWidth="40" markerHeight="30" refX="20" refY="15" viewBox="0 0 40 30" orient="auto" id="SvgjsMarker1011"><path d="m 0 0 l 20 15 l -20 15 a 7.5 1 90 0 0 0 -30 z" fill="black" stroke-width="0.1" stroke="black"></path></marker><marker markerWidth="40" markerHeight="30" refX="20" refY="15" viewBox="0 0 40 30" orient="auto" id="SvgjsMarker1012"><path d="m 0 0 l 20 15 l -20 15 a 7.5 1 90 0 0 0 -30 z" fill="black" stroke-width="0.1" stroke="black"></path></marker><marker markerWidth="40" markerHeight="30" refX="20" refY="15" viewBox="0 0 40 30" orient="auto" id="SvgjsMarker1013"><path d="m 0 0 l 20 15 l -20 15 a 7.5 1 90 0 0 0 -30 z" fill="black" stroke-width="0.1" stroke="black"></path></marker><marker markerWidth="40" markerHeight="30" refX="20" refY="15" viewBox="0 0 40 30" orient="auto" id="SvgjsMarker1014"><path d="m 40 0 l -20 15 l 20 15 a 7.5 1 -90 0 1 0 -30 z" fill="black" stroke-width="0.1" stroke="black"></path></marker><marker markerWidth="40" markerHeight="30" refX="20" refY="15" viewBox="0 0 40 30" orient="auto" id="SvgjsMarker1015"><path d="m 0 0 l 20 15 l -20 15 a 7.5 1 90 0 0 0 -30 z" fill="black" stroke-width="0.1" stroke="black"></path></marker><marker markerWidth="40" markerHeight="30" refX="20" refY="15" viewBox="0 0 40 30" orient="auto" id="SvgjsMarker1016"><path d="m 0 0 l 20 15 l -20 15 a 7.5 1 90 0 0 0 -30 z" fill="black" stroke-width="0.1" stroke="black"></path></marker></defs><g><polyline points="170.94218636071457,102.68359375 123.82421875,127.68359375 83.25574329780362,152.68359375" stroke-width="0.25" stroke="black" fill="none" marker-end="url(#SvgjsMarker1002)"></polyline><polyline points="87.25574329780362,152.68359375 127.82421875,127.68359375 174.94218636071457,102.68359375" stroke-width="0.25" stroke="black" fill="none" stroke-dasharray="2" marker-end="url(#SvgjsMarker1003)"></polyline></g><g><polyline points="194.31511715851818,102.68359375 187.765625,127.68359375 187.765625,155.8544921875" stroke-width="0.25" stroke="black" fill="none" marker-end="url(#SvgjsMarker1004)"></polyline></g><g><polyline points="187.765625,175.8544921875 187.765625,204.025390625 187.765625,229.025390625" stroke-width="0.25" stroke="black" fill="none" marker-end="url(#SvgjsMarker1005)"></polyline></g><g><polyline points="233.77592006793338,102.68359375 302.1279296875,127.68359375 302.1279296875,155.8544921875" stroke-width="0.25" stroke="black" fill="none" marker-end="url(#SvgjsMarker1006)"></polyline></g><g><polyline points="302.1279296875,175.8544921875 302.1279296875,204.025390625 324.63349419743935,229.025390625" stroke-width="0.25" stroke="black" fill="none" marker-end="url(#SvgjsMarker1007)"></polyline></g><g><polyline points="195.765625,26.341796875 195.765625,51.341796875 195.765625,76.341796875" stroke-width="0.25" stroke="black" fill="none" marker-end="url(#SvgjsMarker1008)"></polyline><polyline points="199.765625,76.341796875 199.765625,51.341796875 199.765625,26.341796875" stroke-width="0.25" stroke="black" fill="none" stroke-dasharray="2" marker-end="url(#SvgjsMarker1009)"></polyline></g><g><polyline points="245.251953125,24.88708501861061 356.990234375,51.341796875 356.990234375,89.5126953125 356.990234375,127.68359375 356.990234375,165.8544921875 356.990234375,204.025390625 342.2538770183341,229.025390625" stroke-width="0.25" stroke="black" fill="none" marker-end="url(#SvgjsMarker1010)"></polyline><polyline points="346.2538770183341,229.025390625 360.990234375,204.025390625 360.990234375,165.8544921875 360.990234375,127.68359375 360.990234375,89.5126953125 360.990234375,51.341796875 249.251953125,24.88708501861061" stroke-width="0.25" stroke="black" fill="none" stroke-dasharray="2" marker-end="url(#SvgjsMarker1011)"></polyline></g><g><polyline points="324.4134569298136,255.3671875 301.490234375,280.3671875 301.490234375,305.3671875" stroke-width="0.25" stroke="black" fill="none" marker-end="url(#SvgjsMarker1012)"></polyline></g><g><polyline points="301.490234375,325.3671875 301.490234375,350.3671875 324.4134569298136,375.3671875" stroke-width="0.25" stroke="black" fill="none" marker-end="url(#SvgjsMarker1013)" marker-start="url(#SvgjsMarker1014)"></polyline></g><g><polyline points="348.5670118201864,255.3671875 371.490234375,280.3671875 371.490234375,305.3671875" stroke-width="0.25" stroke="black" fill="none" marker-end="url(#SvgjsMarker1015)"></polyline></g><g><polyline points="371.490234375,325.3671875 371.490234375,350.3671875 348.5670118201864,375.3671875" stroke-width="0.25" stroke="black" fill="none" marker-end="url(#SvgjsMarker1016)"></polyline></g></svg>