<?xml version="1.0" encoding="UTF-8" standalone="no"?><svg xmlns="http://www.w3.org/2000/svg" xmlns:xlink="http://www.w3.org/1999/xlink" contentScriptType="application/ecmascript" contentStyleType="text/css" height="416px" preserveAspectRatio="none" style="width:376px;height:416px;" version="1.1" viewBox="0 0 376 416" width="376px" zoomAndPan="magnify"><defs/><g><rect fill="#FFFFFF" height="62.5938" style="stroke: #444444; stroke-width: 1.0; stroke-dasharray: 7.0,7.0;" width="92" x="113.5" y="185"/><text fill="#000000" font-family="sans-serif" font-size="0" font-style="italic" lengthAdjust="spacingAndGlyphs" textLength="0" x="159.5" y="195">«boundary»</text><text fill="#444444" font-family="sans-serif" font-size="16" font-weight="bold" lengthAdjust="spacingAndGlyphs" textLength="72" x="123.5" y="219.8516">FTT App</text><text fill="#444444" font-family="sans-serif" font-size="12" lengthAdjust="spacingAndGlyphs" textLength="55" x="132" y="234.7637">[System]</text><rect fill="#08427B" height="85.1875" style="stroke: #073B6F; stroke-width: 1.5;" width="101" x="34" y="8"/><text fill="#FFFFFF" font-family="sans-serif" font-size="12" font-style="italic" lengthAdjust="spacingAndGlyphs" textLength="57" x="56" y="29.1387">«person»</text><text fill="#FFFFFF" font-family="sans-serif" font-size="16" font-weight="bold" lengthAdjust="spacingAndGlyphs" textLength="81" x="44" y="46.8203">Students</text><text fill="#FFFFFF" font-family="sans-serif" font-size="14" lengthAdjust="spacingAndGlyphs" textLength="0" x="86.5" y="63.5889"/><text fill="#FFFFFF" font-family="sans-serif" font-size="14" lengthAdjust="spacingAndGlyphs" textLength="0" x="86.5" y="79.8857"/><rect fill="#08427B" height="85.1875" style="stroke: #073B6F; stroke-width: 1.5;" width="129" x="170" y="8"/><text fill="#FFFFFF" font-family="sans-serif" font-size="12" font-style="italic" lengthAdjust="spacingAndGlyphs" textLength="57" x="206" y="29.1387">«person»</text><text fill="#FFFFFF" font-family="sans-serif" font-size="16" font-weight="bold" lengthAdjust="spacingAndGlyphs" textLength="109" x="180" y="46.8203">Restaurants</text><text fill="#FFFFFF" font-family="sans-serif" font-size="14" lengthAdjust="spacingAndGlyphs" textLength="0" x="236.5" y="63.5889"/><text fill="#FFFFFF" font-family="sans-serif" font-size="14" lengthAdjust="spacingAndGlyphs" textLength="0" x="236.5" y="79.8857"/><rect fill="#999999" height="52.5938" style="stroke: #8A8A8A; stroke-width: 1.5;" width="135" x="6" y="353"/><text fill="#FFFFFF" font-family="sans-serif" font-size="12" font-style="italic" lengthAdjust="spacingAndGlyphs" textLength="115" x="16" y="374.1387">«external_system»</text><text fill="#FFFFFF" font-family="sans-serif" font-size="16" font-weight="bold" lengthAdjust="spacingAndGlyphs" textLength="79" x="34" y="391.8203">Publibike</text><rect fill="#999999" height="52.5938" style="stroke: #8A8A8A; stroke-width: 1.5;" width="135" x="179" y="353"/><text fill="#FFFFFF" font-family="sans-serif" font-size="12" font-style="italic" lengthAdjust="spacingAndGlyphs" textLength="115" x="189" y="374.1387">«external_system»</text><text fill="#FFFFFF" font-family="sans-serif" font-size="16" font-weight="bold" lengthAdjust="spacingAndGlyphs" textLength="75" x="209" y="391.8203">Firebase</text><path d="M76.48,93.13 C74.65,112.78 75.43,136.03 84.5,155 C90.11,166.73 99.22,176.91 109.19,185.4 " fill="none" id="user_s-&gt;boundary" style="stroke: #666666; stroke-width: 1.0;"/><polygon fill="#666666" points="113.2,188.69,108.7886,179.8843,109.3379,185.5145,103.7077,186.0638,113.2,188.69" style="stroke: #666666; stroke-width: 1.0;"/><text fill="#666666" font-family="sans-serif" font-size="13" font-weight="bold" lengthAdjust="spacingAndGlyphs" textLength="100" x="85.5" y="136.0669">Look for food</text><text fill="#666666" font-family="sans-serif" font-size="13" font-weight="bold" lengthAdjust="spacingAndGlyphs" textLength="46" x="115" y="151.1997">trucks</text><path d="M220.67,93.25 C213.84,112.39 205.03,135.19 195.5,155 C191.43,163.46 186.56,172.28 181.74,180.5 " fill="none" id="user_r-&gt;boundary" style="stroke: #666666; stroke-width: 1.0;"/><polygon fill="#666666" points="179.08,184.99,187.1042,179.2793,181.6251,180.6862,180.2181,175.2071,179.08,184.99" style="stroke: #666666; stroke-width: 1.0;"/><text fill="#666666" font-family="sans-serif" font-size="13" font-weight="bold" lengthAdjust="spacingAndGlyphs" textLength="138" x="209.5" y="143.5669">Upload new trucks</text><path d="M113.18,237.44 C96.62,247.12 79.77,260.5 70.5,278 C59.21,299.33 60.99,326.94 65.02,347.82 " fill="none" id="boundary-&gt;publibike" style="stroke: #666666; stroke-width: 1.0;"/><polygon fill="#666666" points="66.08,352.98,68.1671,343.3548,65.0637,348.0844,60.3341,344.981,66.08,352.98" style="stroke: #666666; stroke-width: 1.0;"/><text fill="#666666" font-family="sans-serif" font-size="13" font-weight="bold" lengthAdjust="spacingAndGlyphs" textLength="128" x="73" y="298.0669">Transport service</text><text fill="#666666" font-family="sans-serif" font-size="12" font-style="italic" lengthAdjust="spacingAndGlyphs" textLength="131" x="71.5" y="312.2715">[Bikes near the user]</text><path d="M186.8,248.24 C194.13,257.42 201.63,267.76 207.5,278 C220.25,300.25 230.53,327.47 237.32,347.97 " fill="none" id="boundary-&gt;firebase" style="stroke: #666666; stroke-width: 1.0;"/><polygon fill="#666666" points="238.89,352.76,239.9183,342.965,237.3475,348.0039,232.3086,345.433,238.89,352.76" style="stroke: #666666; stroke-width: 1.0;"/><text fill="#666666" font-family="sans-serif" font-size="13" font-weight="bold" lengthAdjust="spacingAndGlyphs" textLength="107" x="243" y="291.0669">Authentication</text><text fill="#666666" font-family="sans-serif" font-size="12" font-style="italic" lengthAdjust="spacingAndGlyphs" textLength="132" x="228.5" y="305.2715">[Sign Up, Sign In into</text><text fill="#666666" font-family="sans-serif" font-size="12" font-style="italic" lengthAdjust="spacingAndGlyphs" textLength="99" x="247" y="319.2402">the application]</text></g></svg>