<?xml version="1.0" encoding="UTF-8" standalone="no"?><svg xmlns="http://www.w3.org/2000/svg" xmlns:xlink="http://www.w3.org/1999/xlink" contentScriptType="application/ecmascript" contentStyleType="text/css" height="640px" preserveAspectRatio="none" style="width:644px;height:640px;" version="1.1" viewBox="0 0 644 640" width="644px" zoomAndPan="magnify"><defs><filter height="300%" id="f1imebos324bha" width="300%" x="-1" y="-1"><feGaussianBlur result="blurOut" stdDeviation="2.0"/><feColorMatrix in="blurOut" result="blurOut2" type="matrix" values="0 0 0 0 0 0 0 0 0 0 0 0 0 0 0 0 0 0 .4 0"/><feOffset dx="4.0" dy="4.0" in="blurOut2" result="blurOut3"/><feBlend in="SourceGraphic" in2="blurOut3" mode="normal"/></filter></defs><g><text fill="#000000" font-family="sans-serif" font-size="18" lengthAdjust="spacingAndGlyphs" textLength="159" x="253.5" y="16.708">Deployment View</text><polygon fill="#FFFFFF" filter="url(#f1imebos324bha)" points="22,54.9531,32,44.9531,355,44.9531,355,223.9531,345,233.9531,22,233.9531,22,54.9531" style="stroke: #000000; stroke-width: 1.5;"/><line style="stroke: #000000; stroke-width: 1.5;" x1="345" x2="354" y1="54.9531" y2="45.9531"/><line style="stroke: #000000; stroke-width: 1.5;" x1="22" x2="345" y1="54.9531" y2="54.9531"/><line style="stroke: #000000; stroke-width: 1.5;" x1="345" x2="345" y1="54.9531" y2="233.9531"/><text fill="#000000" font-family="sans-serif" font-size="14" font-weight="bold" lengthAdjust="spacingAndGlyphs" textLength="106" x="131.5" y="70.9482">Mobile Phone</text><path d="M470,389.9531 C470,379.9531 551,379.9531 551,379.9531 C551,379.9531 632,379.9531 632,389.9531 L632,471.9531 C632,481.9531 551,481.9531 551,481.9531 C551,481.9531 470,481.9531 470,471.9531 L470,389.9531 " fill="#FFFFFF" filter="url(#f1imebos324bha)" style="stroke: #000000; stroke-width: 1.5;"/><path d="M470,389.9531 C470,399.9531 551,399.9531 551,399.9531 C551,399.9531 632,399.9531 632,389.9531 " fill="none" style="stroke: #000000; stroke-width: 1.5;"/><text fill="#000000" font-family="sans-serif" font-size="14" font-weight="bold" lengthAdjust="spacingAndGlyphs" textLength="73" x="514.5" y="414.9482">Database</text><polygon fill="#FFFFFF" filter="url(#f1imebos324bha)" points="246,399.9531,256,389.9531,440,389.9531,440,471.9531,430,481.9531,246,481.9531,246,399.9531" style="stroke: #000000; stroke-width: 1.5;"/><line style="stroke: #000000; stroke-width: 1.5;" x1="430" x2="439" y1="399.9531" y2="390.9531"/><line style="stroke: #000000; stroke-width: 1.5;" x1="246" x2="430" y1="399.9531" y2="399.9531"/><line style="stroke: #000000; stroke-width: 1.5;" x1="430" x2="430" y1="399.9531" y2="481.9531"/><text fill="#000000" font-family="sans-serif" font-size="14" font-weight="bold" lengthAdjust="spacingAndGlyphs" textLength="118" x="280" y="415.9482">Hosting Server</text><path d="M129.4215,539.8243 C136.2918,529.6066 145.4675,529.382 152.7527,539.3446 C159.897,524.6586 173.0025,526.8735 181.2828,538.0936 C189.6978,527.6005 201.667,526.1887 207.7818,540.5465 C211.672,528.0273 221.7359,526.496 229.4161,536.9825 C237.3473,526.4417 248.6822,527.7262 255.2826,538.5906 C261.5015,523.5377 273.5598,523.253 283.6586,534.3862 C291.8781,523.6766 302.2038,524.0208 308.6595,536.304 C314.6829,524.3337 327.3033,521.7318 335.5596,533.8058 C344.373,520.7221 354.4562,525.2858 360.7589,536.4184 C369.1827,524.891 381.5703,525.4637 386.764,539.6811 C392.0599,527.4656 405.1503,524.6479 413.3165,536.5165 C420.9692,527.2087 431.8365,528.9014 436.4813,539.9409 C445.3109,529.7013 454.996,530.0877 462.9211,541.068 C469.0807,525.7581 482.8732,526.1077 490.4782,539.6893 C509.2781,549.269 514.5517,561.5775 497.0902,577.4986 C509.4894,592.4574 509.4445,606.1288 488.8667,613.5695 C481.1342,625.4081 471.1078,623.493 465.7963,611.2502 C457.9611,624.8692 448.5146,625.2274 438.9439,613.0572 C430.9561,625.6241 420.573,622.0455 414.1273,611.4079 C408.8663,626.0094 396.5747,626.3229 387.6265,615.2075 C376.4863,626.9671 366.386,625.6133 358.5081,611.5315 C351.9642,625.6466 342.67,625.6199 333.9384,613.5871 C327.1323,626.971 318.6309,626.9137 309.9383,615.4059 C300.4095,628.934 289.339,625.7157 283.2676,612.0189 C276.5743,624.2288 265.5977,625.3461 256.5352,614.8024 C247.6483,623.5927 238.0793,622.4785 232.0211,611.3255 C226.2533,624.2784 215.8714,624.2688 206.859,614.9993 C199.3766,627.3795 186.358,626.4063 179.0349,614.8142 C171.5898,627.5044 161.3683,624.4176 154.3199,614.3828 C145.8013,626.8293 133.8799,627.9035 126.9024,612.8465 C110.9147,604.3405 110.0805,586.806 124.1479,576.0502 C108.9113,562.5183 111.4323,548.5193 129.4215,539.8243 " fill="#FFFFFF" style="stroke: #000000; stroke-width: 1.5;"/><text fill="#000000" font-family="sans-serif" font-size="14" font-weight="bold" lengthAdjust="spacingAndGlyphs" textLength="45" x="284" y="556.9482">Cloud</text><rect fill="#FEFECE" filter="url(#f1imebos324bha)" height="36.2969" style="stroke: #A80036; stroke-width: 1.5;" width="116" x="38" y="84.9531"/><rect fill="#FEFECE" height="5" style="stroke: #A80036; stroke-width: 1.5;" width="10" x="33" y="89.9531"/><rect fill="#FEFECE" height="5" style="stroke: #A80036; stroke-width: 1.5;" width="10" x="33" y="111.25"/><text fill="#000000" font-family="sans-serif" font-size="14" lengthAdjust="spacingAndGlyphs" textLength="96" x="48" y="107.9482">User Interface</text><rect fill="#FEFECE" filter="url(#f1imebos324bha)" height="36.2969" style="stroke: #A80036; stroke-width: 1.5;" width="185" x="109.5" y="181.9531"/><rect fill="#FEFECE" height="5" style="stroke: #A80036; stroke-width: 1.5;" width="10" x="104.5" y="186.9531"/><rect fill="#FEFECE" height="5" style="stroke: #A80036; stroke-width: 1.5;" width="10" x="104.5" y="208.25"/><text fill="#000000" font-family="sans-serif" font-size="14" lengthAdjust="spacingAndGlyphs" textLength="165" x="119.5" y="204.9482">React Native Application</text><rect fill="#FEFECE" filter="url(#f1imebos324bha)" height="36.2969" style="stroke: #A80036; stroke-width: 1.5;" width="150" x="189" y="84.9531"/><rect fill="#FEFECE" height="5" style="stroke: #A80036; stroke-width: 1.5;" width="10" x="184" y="89.9531"/><rect fill="#FEFECE" height="5" style="stroke: #A80036; stroke-width: 1.5;" width="10" x="184" y="111.25"/><text fill="#000000" font-family="sans-serif" font-size="14" lengthAdjust="spacingAndGlyphs" textLength="130" x="199" y="107.9482">Notification Service</text><rect fill="#FEFECE" filter="url(#f1imebos324bha)" height="36.2969" style="stroke: #A80036; stroke-width: 1.5;" width="129" x="486.5" y="429.9531"/><rect fill="#FEFECE" height="5" style="stroke: #A80036; stroke-width: 1.5;" width="10" x="481.5" y="434.9531"/><rect fill="#FEFECE" height="5" style="stroke: #A80036; stroke-width: 1.5;" width="10" x="481.5" y="456.25"/><text fill="#000000" font-family="sans-serif" font-size="14" lengthAdjust="spacingAndGlyphs" textLength="109" x="496.5" y="452.9482">Client Database</text><rect fill="#FEFECE" filter="url(#f1imebos324bha)" height="36.2969" style="stroke: #A80036; stroke-width: 1.5;" width="82" x="336" y="429.9531"/><rect fill="#FEFECE" height="5" style="stroke: #A80036; stroke-width: 1.5;" width="10" x="331" y="434.9531"/><rect fill="#FEFECE" height="5" style="stroke: #A80036; stroke-width: 1.5;" width="10" x="331" y="456.25"/><text fill="#000000" font-family="sans-serif" font-size="14" lengthAdjust="spacingAndGlyphs" textLength="62" x="346" y="452.9482">REST API</text><rect fill="#FEFECE" filter="url(#f1imebos324bha)" height="36.2969" style="stroke: #A80036; stroke-width: 1.5;" width="174" x="305" y="565.9531"/><rect fill="#FEFECE" height="5" style="stroke: #A80036; stroke-width: 1.5;" width="10" x="300" y="570.9531"/><rect fill="#FEFECE" height="5" style="stroke: #A80036; stroke-width: 1.5;" width="10" x="300" y="592.25"/><text fill="#000000" font-family="sans-serif" font-size="14" lengthAdjust="spacingAndGlyphs" textLength="154" x="315" y="588.9482">Authentication Service</text><rect fill="#FEFECE" filter="url(#f1imebos324bha)" height="36.2969" style="stroke: #A80036; stroke-width: 1.5;" width="136" x="134" y="565.9531"/><rect fill="#FEFECE" height="5" style="stroke: #A80036; stroke-width: 1.5;" width="10" x="129" y="570.9531"/><rect fill="#FEFECE" height="5" style="stroke: #A80036; stroke-width: 1.5;" width="10" x="129" y="592.25"/><text fill="#000000" font-family="sans-serif" font-size="14" lengthAdjust="spacingAndGlyphs" textLength="116" x="144" y="588.9482">Google Maps API</text><rect fill="#FEFECE" filter="url(#f1imebos324bha)" height="36.2969" style="stroke: #A80036; stroke-width: 1.5;" width="117" x="318.5" y="280.9531"/><rect fill="#FEFECE" height="5" style="stroke: #A80036; stroke-width: 1.5;" width="10" x="313.5" y="285.9531"/><rect fill="#FEFECE" height="5" style="stroke: #A80036; stroke-width: 1.5;" width="10" x="313.5" y="307.25"/><text fill="#000000" font-family="sans-serif" font-size="14" lengthAdjust="spacingAndGlyphs" textLength="97" x="328.5" y="303.9482">Load Balancer</text><rect fill="#FEFECE" filter="url(#f1imebos324bha)" height="36.2969" style="stroke: #A80036; stroke-width: 1.5;" width="82" x="371" y="181.9531"/><rect fill="#FEFECE" height="5" style="stroke: #A80036; stroke-width: 1.5;" width="10" x="366" y="186.9531"/><rect fill="#FEFECE" height="5" style="stroke: #A80036; stroke-width: 1.5;" width="10" x="366" y="208.25"/><text fill="#000000" font-family="sans-serif" font-size="14" lengthAdjust="spacingAndGlyphs" textLength="62" x="381" y="204.9482">Directory</text><path d="M530.54,466.1931 C500.01,491.9231 442.87,540.0831 412.38,565.7731 " fill="none" id="DB-AS" style="stroke: #A80036; stroke-width: 1.0;"/><text fill="#000000" font-family="sans-serif" font-size="13" lengthAdjust="spacingAndGlyphs" textLength="32" x="491" y="511.02">HTTP</text><path d="M115.44,121.3731 C134.57,138.5231 163.6,164.5331 182.68,181.6431 " fill="none" id="UI-RN" style="stroke: #A80036; stroke-width: 1.0;"/><path d="M154.08,102.9531 C165.67,102.9531 177.26,102.9531 188.86,102.9531 " fill="none" id="UI-NS" style="stroke: #A80036; stroke-width: 1.0;"/><path d="M232.88,218.0731 C264.77,235.7431 314.25,263.1731 346.13,280.8431 " fill="none" id="RN-LB" style="stroke: #A80036; stroke-width: 1.0;"/><path d="M405.74,218.2931 C399.37,235.9531 389.55,263.1631 383.2,280.7631 " fill="none" id="DIR-LB" style="stroke: #A80036; stroke-width: 1.0;"/><path d="M377,317.1031 C377,345.4331 377,401.6631 377,429.9131 " fill="none" id="LB-RAPI" style="stroke: #A80036; stroke-width: 1.0;"/><path d="M202,218.3631 C202,282.1431 202,502.6531 202,565.8831 " fill="none" id="RN-GMA" style="stroke: #A80036; stroke-width: 1.0;"/><text fill="#000000" font-family="sans-serif" font-size="13" lengthAdjust="spacingAndGlyphs" textLength="32" x="203" y="360.02">HTTP</text><path d="M418.24,447.9531 C438.54,447.9531 463.48,447.9531 486.25,447.9531 " fill="none" id="RAPI-DB" style="stroke: #A80036; stroke-width: 1.0;"/><text fill="#000000" font-family="sans-serif" font-size="13" lengthAdjust="spacingAndGlyphs" textLength="32" x="436.25" y="441.02">HTTP</text><path d="M378.93,466.1931 C381.81,491.9231 387.2,540.0831 390.08,565.7731 " fill="none" id="RAPI-AS" style="stroke: #A80036; stroke-width: 1.0;"/><text fill="#000000" font-family="sans-serif" font-size="13" lengthAdjust="spacingAndGlyphs" textLength="32" x="385" y="511.02">HTTP</text></g></svg>