<?xml version="1.0" encoding="UTF-8" standalone="no"?><svg xmlns="http://www.w3.org/2000/svg" xmlns:xlink="http://www.w3.org/1999/xlink" contentScriptType="application/ecmascript" contentStyleType="text/css" height="428px" preserveAspectRatio="none" style="width:771px;height:428px;" version="1.1" viewBox="0 0 771 428" width="771px" zoomAndPan="magnify"><defs><filter height="300%" id="f1ek3ayv9dfhph" width="300%" x="-1" y="-1"><feGaussianBlur result="blurOut" stdDeviation="2.0"/><feColorMatrix in="blurOut" result="blurOut2" type="matrix" values="0 0 0 0 0 0 0 0 0 0 0 0 0 0 0 0 0 0 .4 0"/><feOffset dx="4.0" dy="4.0" in="blurOut2" result="blurOut3"/><feBlend in="SourceGraphic" in2="blurOut3" mode="normal"/></filter></defs><g><text fill="#000000" font-family="sans-serif" font-size="18" lengthAdjust="spacingAndGlyphs" textLength="159" x="317" y="16.708">Deployment View</text><polygon fill="#FFFFFF" filter="url(#f1ek3ayv9dfhph)" points="22,54.9531,32,44.9531,355,44.9531,355,259.9531,345,269.9531,22,269.9531,22,54.9531" style="stroke: #000000; stroke-width: 1.5;"/><line style="stroke: #000000; stroke-width: 1.5;" x1="345" x2="354" y1="54.9531" y2="45.9531"/><line style="stroke: #000000; stroke-width: 1.5;" x1="22" x2="345" y1="54.9531" y2="54.9531"/><line style="stroke: #000000; stroke-width: 1.5;" x1="345" x2="345" y1="54.9531" y2="269.9531"/><text fill="#000000" font-family="sans-serif" font-size="14" font-weight="bold" lengthAdjust="spacingAndGlyphs" textLength="106" x="131.5" y="70.9482">Mobile Phone</text><path d="M597,177.9531 C597,167.9531 678,167.9531 678,167.9531 C678,167.9531 759,167.9531 759,177.9531 L759,259.9531 C759,269.9531 678,269.9531 678,269.9531 C678,269.9531 597,269.9531 597,259.9531 L597,177.9531 " fill="#FFFFFF" filter="url(#f1ek3ayv9dfhph)" style="stroke: #000000; stroke-width: 1.5;"/><path d="M597,177.9531 C597,187.9531 678,187.9531 678,187.9531 C678,187.9531 759,187.9531 759,177.9531 " fill="none" style="stroke: #000000; stroke-width: 1.5;"/><text fill="#000000" font-family="sans-serif" font-size="14" font-weight="bold" lengthAdjust="spacingAndGlyphs" textLength="73" x="641.5" y="202.9482">Database</text><polygon fill="#FFFFFF" filter="url(#f1ek3ayv9dfhph)" points="379,187.9531,389,177.9531,573,177.9531,573,259.9531,563,269.9531,379,269.9531,379,187.9531" style="stroke: #000000; stroke-width: 1.5;"/><line style="stroke: #000000; stroke-width: 1.5;" x1="563" x2="572" y1="187.9531" y2="178.9531"/><line style="stroke: #000000; stroke-width: 1.5;" x1="379" x2="563" y1="187.9531" y2="187.9531"/><line style="stroke: #000000; stroke-width: 1.5;" x1="563" x2="563" y1="187.9531" y2="269.9531"/><text fill="#000000" font-family="sans-serif" font-size="14" font-weight="bold" lengthAdjust="spacingAndGlyphs" textLength="118" x="413" y="203.9482">Hosting Server</text><path d="M213.4215,327.8243 C220.2918,317.6066 229.4675,317.382 236.7527,327.3446 C243.897,312.6586 257.0025,314.8735 265.2828,326.0936 C273.6978,315.6005 285.667,314.1887 291.7818,328.5465 C295.672,316.0273 305.7359,314.496 313.4161,324.9825 C321.3473,314.4417 332.6822,315.7262 339.2826,326.5906 C345.5015,311.5377 357.5598,311.253 367.6586,322.3862 C375.8781,311.6766 386.2038,312.0208 392.6595,324.304 C398.6829,312.3337 411.3033,309.7318 419.5596,321.8058 C428.373,308.7221 438.4562,313.2858 444.7589,324.4184 C453.1827,312.891 465.5703,313.4637 470.764,327.6811 C476.0599,315.4656 489.1503,312.6479 497.3165,324.5165 C504.9692,315.2087 515.8365,316.9014 520.4813,327.9409 C529.3109,317.7013 538.996,318.0877 546.9211,329.068 C553.0807,313.7581 566.8732,314.1077 574.4782,327.6893 C593.2781,337.269 598.5517,349.5775 581.0902,365.4986 C593.4894,380.4574 593.4445,394.1288 572.8667,401.5695 C565.1342,413.4081 555.1078,411.493 549.7963,399.2502 C541.9611,412.8692 532.5146,413.2274 522.9439,401.0572 C514.9561,413.6241 504.573,410.0455 498.1273,399.4079 C492.8663,414.0094 480.5747,414.3229 471.6265,403.2075 C460.4863,414.9671 450.386,413.6133 442.5081,399.5315 C435.9642,413.6466 426.67,413.6199 417.9384,401.5871 C411.1323,414.971 402.6309,414.9137 393.9383,403.4059 C384.4095,416.934 373.339,413.7157 367.2676,400.0189 C360.5743,412.2288 349.5977,413.3461 340.5352,402.8024 C331.6483,411.5927 322.0793,410.4785 316.0211,399.3255 C310.2533,412.2784 299.8714,412.2688 290.859,402.9993 C283.3766,415.3795 270.358,414.4063 263.0349,402.8142 C255.5898,415.5044 245.3683,412.4176 238.3199,402.3828 C229.8013,414.8293 217.8799,415.9035 210.9024,400.8465 C194.9147,392.3405 194.0805,374.806 208.1479,364.0502 C192.9113,350.5183 195.4323,336.5193 213.4215,327.8243 " fill="#FFFFFF" style="stroke: #000000; stroke-width: 1.5;"/><text fill="#000000" font-family="sans-serif" font-size="14" font-weight="bold" lengthAdjust="spacingAndGlyphs" textLength="45" x="368" y="344.9482">Cloud</text><rect fill="#FEFECE" filter="url(#f1ek3ayv9dfhph)" height="36.2969" style="stroke: #A80036; stroke-width: 1.5;" width="116" x="38" y="84.9531"/><rect fill="#FEFECE" height="5" style="stroke: #A80036; stroke-width: 1.5;" width="10" x="33" y="89.9531"/><rect fill="#FEFECE" height="5" style="stroke: #A80036; stroke-width: 1.5;" width="10" x="33" y="111.25"/><text fill="#000000" font-family="sans-serif" font-size="14" lengthAdjust="spacingAndGlyphs" textLength="96" x="48" y="107.9482">User Interface</text><rect fill="#FEFECE" filter="url(#f1ek3ayv9dfhph)" height="36.2969" style="stroke: #A80036; stroke-width: 1.5;" width="185" x="154.5" y="217.9531"/><rect fill="#FEFECE" height="5" style="stroke: #A80036; stroke-width: 1.5;" width="10" x="149.5" y="222.9531"/><rect fill="#FEFECE" height="5" style="stroke: #A80036; stroke-width: 1.5;" width="10" x="149.5" y="244.25"/><text fill="#000000" font-family="sans-serif" font-size="14" lengthAdjust="spacingAndGlyphs" textLength="165" x="164.5" y="240.9482">React Native Application</text><rect fill="#FEFECE" filter="url(#f1ek3ayv9dfhph)" height="36.2969" style="stroke: #A80036; stroke-width: 1.5;" width="150" x="189" y="84.9531"/><rect fill="#FEFECE" height="5" style="stroke: #A80036; stroke-width: 1.5;" width="10" x="184" y="89.9531"/><rect fill="#FEFECE" height="5" style="stroke: #A80036; stroke-width: 1.5;" width="10" x="184" y="111.25"/><text fill="#000000" font-family="sans-serif" font-size="14" lengthAdjust="spacingAndGlyphs" textLength="130" x="199" y="107.9482">Notification Service</text><rect fill="#FEFECE" filter="url(#f1ek3ayv9dfhph)" height="36.2969" style="stroke: #A80036; stroke-width: 1.5;" width="129" x="613.5" y="217.9531"/><rect fill="#FEFECE" height="5" style="stroke: #A80036; stroke-width: 1.5;" width="10" x="608.5" y="222.9531"/><rect fill="#FEFECE" height="5" style="stroke: #A80036; stroke-width: 1.5;" width="10" x="608.5" y="244.25"/><text fill="#000000" font-family="sans-serif" font-size="14" lengthAdjust="spacingAndGlyphs" textLength="109" x="623.5" y="240.9482">Client Database</text><rect fill="#FEFECE" filter="url(#f1ek3ayv9dfhph)" height="36.2969" style="stroke: #A80036; stroke-width: 1.5;" width="82" x="435" y="217.9531"/><rect fill="#FEFECE" height="5" style="stroke: #A80036; stroke-width: 1.5;" width="10" x="430" y="222.9531"/><rect fill="#FEFECE" height="5" style="stroke: #A80036; stroke-width: 1.5;" width="10" x="430" y="244.25"/><text fill="#000000" font-family="sans-serif" font-size="14" lengthAdjust="spacingAndGlyphs" textLength="62" x="445" y="240.9482">REST API</text><rect fill="#FEFECE" filter="url(#f1ek3ayv9dfhph)" height="36.2969" style="stroke: #A80036; stroke-width: 1.5;" width="174" x="389" y="353.9531"/><rect fill="#FEFECE" height="5" style="stroke: #A80036; stroke-width: 1.5;" width="10" x="384" y="358.9531"/><rect fill="#FEFECE" height="5" style="stroke: #A80036; stroke-width: 1.5;" width="10" x="384" y="380.25"/><text fill="#000000" font-family="sans-serif" font-size="14" lengthAdjust="spacingAndGlyphs" textLength="154" x="399" y="376.9482">Authentication Service</text><rect fill="#FEFECE" filter="url(#f1ek3ayv9dfhph)" height="36.2969" style="stroke: #A80036; stroke-width: 1.5;" width="136" x="218" y="353.9531"/><rect fill="#FEFECE" height="5" style="stroke: #A80036; stroke-width: 1.5;" width="10" x="213" y="358.9531"/><rect fill="#FEFECE" height="5" style="stroke: #A80036; stroke-width: 1.5;" width="10" x="213" y="380.25"/><text fill="#000000" font-family="sans-serif" font-size="14" lengthAdjust="spacingAndGlyphs" textLength="116" x="228" y="376.9482">Google Maps API</text><rect fill="#FEFECE" filter="url(#f1ek3ayv9dfhph)" height="36.2969" style="stroke: #A80036; stroke-width: 1.5;" width="90" x="431" y="84.9531"/><rect fill="#FEFECE" height="5" style="stroke: #A80036; stroke-width: 1.5;" width="10" x="426" y="89.9531"/><rect fill="#FEFECE" height="5" style="stroke: #A80036; stroke-width: 1.5;" width="10" x="426" y="111.25"/><text fill="#000000" font-family="sans-serif" font-size="14" lengthAdjust="spacingAndGlyphs" textLength="70" x="441" y="107.9482">Watchdog</text><path d="M652.01,254.1931 C613.22,279.9231 540.62,328.0831 501.89,353.7731 " fill="none" id="DB-AS" style="stroke: #A80036; stroke-width: 1.0;"/><text fill="#000000" font-family="sans-serif" font-size="13" lengthAdjust="spacingAndGlyphs" textLength="32" x="602" y="299.02">HTTP</text><path d="M115.74,121.0831 C144.68,146.1831 198.31,192.7131 227.25,217.8231 " fill="none" id="UI-RN" style="stroke: #A80036; stroke-width: 1.0;"/><path d="M154.08,102.9531 C165.67,102.9531 177.26,102.9531 188.86,102.9531 " fill="none" id="UI-NS" style="stroke: #A80036; stroke-width: 1.0;"/><path d="M476,121.0831 C476,146.1831 476,192.7131 476,217.8231 " fill="none" id="WD-RAPI" style="stroke: #A80036; stroke-width: 1.0;"/><path d="M252.02,254.1931 C259.51,279.9231 273.52,328.0831 281,353.7731 " fill="none" id="RN-GMA" style="stroke: #A80036; stroke-width: 1.0;"/><text fill="#000000" font-family="sans-serif" font-size="13" lengthAdjust="spacingAndGlyphs" textLength="32" x="266" y="299.02">HTTP</text><path d="M517.37,235.9531 C544.95,235.9531 581.79,235.9531 613.22,235.9531 " fill="none" id="RAPI-DB" style="stroke: #A80036; stroke-width: 1.0;"/><text fill="#000000" font-family="sans-serif" font-size="13" lengthAdjust="spacingAndGlyphs" textLength="32" x="549.25" y="229.02">HTTP</text><path d="M476,254.1931 C476,279.9231 476,328.0831 476,353.7731 " fill="none" id="RAPI-AS" style="stroke: #A80036; stroke-width: 1.0;"/><text fill="#000000" font-family="sans-serif" font-size="13" lengthAdjust="spacingAndGlyphs" textLength="32" x="477" y="299.02">HTTP</text><path d="M339.81,235.9531 C372.79,235.9531 408.26,235.9531 434.73,235.9531 " fill="none" id="RN-RAPI" style="stroke: #A80036; stroke-width: 1.0;"/><text fill="#000000" font-family="sans-serif" font-size="13" lengthAdjust="spacingAndGlyphs" textLength="32" x="371.25" y="229.02">HTTP</text></g></svg>