<?xml version="1.0" encoding="UTF-8" standalone="no"?><svg xmlns="http://www.w3.org/2000/svg" xmlns:xlink="http://www.w3.org/1999/xlink" contentScriptType="application/ecmascript" contentStyleType="text/css" height="428px" preserveAspectRatio="none" style="width:824px;height:428px;" version="1.1" viewBox="0 0 824 428" width="824px" zoomAndPan="magnify"><defs><filter height="300%" id="f1bh1r8axtkzw5" width="300%" x="-1" y="-1"><feGaussianBlur result="blurOut" stdDeviation="2.0"/><feColorMatrix in="blurOut" result="blurOut2" type="matrix" values="0 0 0 0 0 0 0 0 0 0 0 0 0 0 0 0 0 0 .4 0"/><feOffset dx="4.0" dy="4.0" in="blurOut2" result="blurOut3"/><feBlend in="SourceGraphic" in2="blurOut3" mode="normal"/></filter></defs><g><text fill="#000000" font-family="sans-serif" font-size="18" lengthAdjust="spacingAndGlyphs" textLength="159" x="343.5" y="16.708">Deployment View</text><polygon fill="#FFFFFF" filter="url(#f1bh1r8axtkzw5)" points="22,54.9531,32,44.9531,355,44.9531,355,259.9531,345,269.9531,22,269.9531,22,54.9531" style="stroke: #000000; stroke-width: 1.5;"/><line style="stroke: #000000; stroke-width: 1.5;" x1="345" x2="354" y1="54.9531" y2="45.9531"/><line style="stroke: #000000; stroke-width: 1.5;" x1="22" x2="345" y1="54.9531" y2="54.9531"/><line style="stroke: #000000; stroke-width: 1.5;" x1="345" x2="345" y1="54.9531" y2="269.9531"/><text fill="#000000" font-family="sans-serif" font-size="14" font-weight="bold" lengthAdjust="spacingAndGlyphs" textLength="106" x="131.5" y="70.9482">Mobile Phone</text><path d="M597,177.9531 C597,167.9531 704.5,167.9531 704.5,167.9531 C704.5,167.9531 812,167.9531 812,177.9531 L812,395.9531 C812,405.9531 704.5,405.9531 704.5,405.9531 C704.5,405.9531 597,405.9531 597,395.9531 L597,177.9531 " fill="#FFFFFF" filter="url(#f1bh1r8axtkzw5)" style="stroke: #000000; stroke-width: 1.5;"/><path d="M597,177.9531 C597,187.9531 704.5,187.9531 704.5,187.9531 C704.5,187.9531 812,187.9531 812,177.9531 " fill="none" style="stroke: #000000; stroke-width: 1.5;"/><text fill="#000000" font-family="sans-serif" font-size="14" font-weight="bold" lengthAdjust="spacingAndGlyphs" textLength="73" x="668" y="202.9482">Database</text><polygon fill="#FFFFFF" filter="url(#f1bh1r8axtkzw5)" points="379,187.9531,389,177.9531,573,177.9531,573,259.9531,563,269.9531,379,269.9531,379,187.9531" style="stroke: #000000; stroke-width: 1.5;"/><line style="stroke: #000000; stroke-width: 1.5;" x1="563" x2="572" y1="187.9531" y2="178.9531"/><line style="stroke: #000000; stroke-width: 1.5;" x1="379" x2="563" y1="187.9531" y2="187.9531"/><line style="stroke: #000000; stroke-width: 1.5;" x1="563" x2="563" y1="187.9531" y2="269.9531"/><text fill="#000000" font-family="sans-serif" font-size="14" font-weight="bold" lengthAdjust="spacingAndGlyphs" textLength="118" x="413" y="203.9482">Hosting Server</text><path d="M196.4215,327.8243 C203.2918,317.6066 212.4675,317.382 219.7527,327.3446 C226.897,312.6586 240.0025,314.8735 248.2828,326.0936 C256.6978,315.6005 268.667,314.1887 274.7818,328.5465 C278.672,316.0273 288.7359,314.496 296.4161,324.9825 C304.3473,314.4417 315.6822,315.7262 322.2826,326.5906 C328.5015,311.5377 340.5598,311.253 350.6586,322.3862 C358.8781,311.6766 369.2038,312.0208 375.6595,324.304 C381.6829,312.3337 394.3033,309.7318 402.5596,321.8058 C411.373,308.7221 421.4562,313.2858 427.7589,324.4184 C436.1827,312.891 448.5703,313.4637 453.764,327.6811 C459.0599,315.4656 472.1503,312.6479 480.3165,324.5165 C487.9692,315.2087 498.8365,316.9014 503.4813,327.9409 C512.3109,317.7013 521.996,318.0877 529.9211,329.068 C536.0807,313.7581 549.8732,314.1077 557.4782,327.6893 C576.2781,337.269 581.5517,349.5775 564.0902,365.4986 C576.4894,380.4574 576.4445,394.1288 555.8667,401.5695 C548.1342,413.4081 538.1078,411.493 532.7963,399.2502 C524.9611,412.8692 515.5146,413.2274 505.9439,401.0572 C497.9561,413.6241 487.573,410.0455 481.1273,399.4079 C475.8663,414.0094 463.5747,414.3229 454.6265,403.2075 C443.4863,414.9671 433.386,413.6133 425.5081,399.5315 C418.9642,413.6466 409.67,413.6199 400.9384,401.5871 C394.1323,414.971 385.6309,414.9137 376.9383,403.4059 C367.4095,416.934 356.339,413.7157 350.2676,400.0189 C343.5743,412.2288 332.5977,413.3461 323.5352,402.8024 C314.6483,411.5927 305.0793,410.4785 299.0211,399.3255 C293.2533,412.2784 282.8714,412.2688 273.859,402.9993 C266.3766,415.3795 253.358,414.4063 246.0349,402.8142 C238.5898,415.5044 228.3683,412.4176 221.3199,402.3828 C212.8013,414.8293 200.8799,415.9035 193.9024,400.8465 C177.9147,392.3405 177.0805,374.806 191.1479,364.0502 C175.9113,350.5183 178.4323,336.5193 196.4215,327.8243 " fill="#FFFFFF" style="stroke: #000000; stroke-width: 1.5;"/><text fill="#000000" font-family="sans-serif" font-size="14" font-weight="bold" lengthAdjust="spacingAndGlyphs" textLength="45" x="351" y="344.9482">Cloud</text><rect fill="#FEFECE" filter="url(#f1bh1r8axtkzw5)" height="36.2969" style="stroke: #A80036; stroke-width: 1.5;" width="116" x="38" y="84.9531"/><rect fill="#FEFECE" height="5" style="stroke: #A80036; stroke-width: 1.5;" width="10" x="33" y="89.9531"/><rect fill="#FEFECE" height="5" style="stroke: #A80036; stroke-width: 1.5;" width="10" x="33" y="111.25"/><text fill="#000000" font-family="sans-serif" font-size="14" lengthAdjust="spacingAndGlyphs" textLength="96" x="48" y="107.9482">User Interface</text><rect fill="#FEFECE" filter="url(#f1bh1r8axtkzw5)" height="36.2969" style="stroke: #A80036; stroke-width: 1.5;" width="185" x="154.5" y="217.9531"/><rect fill="#FEFECE" height="5" style="stroke: #A80036; stroke-width: 1.5;" width="10" x="149.5" y="222.9531"/><rect fill="#FEFECE" height="5" style="stroke: #A80036; stroke-width: 1.5;" width="10" x="149.5" y="244.25"/><text fill="#000000" font-family="sans-serif" font-size="14" lengthAdjust="spacingAndGlyphs" textLength="165" x="164.5" y="240.9482">React Native Application</text><rect fill="#FEFECE" filter="url(#f1bh1r8axtkzw5)" height="36.2969" style="stroke: #A80036; stroke-width: 1.5;" width="150" x="189" y="84.9531"/><rect fill="#FEFECE" height="5" style="stroke: #A80036; stroke-width: 1.5;" width="10" x="184" y="89.9531"/><rect fill="#FEFECE" height="5" style="stroke: #A80036; stroke-width: 1.5;" width="10" x="184" y="111.25"/><text fill="#000000" font-family="sans-serif" font-size="14" lengthAdjust="spacingAndGlyphs" textLength="130" x="199" y="107.9482">Notification Service</text><rect fill="#FEFECE" filter="url(#f1bh1r8axtkzw5)" height="36.2969" style="stroke: #A80036; stroke-width: 1.5;" width="112" x="613" y="217.9531"/><rect fill="#FEFECE" height="5" style="stroke: #A80036; stroke-width: 1.5;" width="10" x="608" y="222.9531"/><rect fill="#FEFECE" height="5" style="stroke: #A80036; stroke-width: 1.5;" width="10" x="608" y="244.25"/><text fill="#000000" font-family="sans-serif" font-size="14" lengthAdjust="spacingAndGlyphs" textLength="92" x="623" y="240.9482">Query Router</text><rect fill="#FEFECE" filter="url(#f1bh1r8axtkzw5)" height="36.2969" style="stroke: #A80036; stroke-width: 1.5;" width="73" x="613.5" y="353.9531"/><rect fill="#FEFECE" height="5" style="stroke: #A80036; stroke-width: 1.5;" width="10" x="608.5" y="358.9531"/><rect fill="#FEFECE" height="5" style="stroke: #A80036; stroke-width: 1.5;" width="10" x="608.5" y="380.25"/><text fill="#000000" font-family="sans-serif" font-size="14" lengthAdjust="spacingAndGlyphs" textLength="53" x="623.5" y="376.9482">Shard A</text><rect fill="#FEFECE" filter="url(#f1bh1r8axtkzw5)" height="36.2969" style="stroke: #A80036; stroke-width: 1.5;" width="74" x="722" y="353.9531"/><rect fill="#FEFECE" height="5" style="stroke: #A80036; stroke-width: 1.5;" width="10" x="717" y="358.9531"/><rect fill="#FEFECE" height="5" style="stroke: #A80036; stroke-width: 1.5;" width="10" x="717" y="380.25"/><text fill="#000000" font-family="sans-serif" font-size="14" lengthAdjust="spacingAndGlyphs" textLength="54" x="732" y="376.9482">Shard B</text><rect fill="#FEFECE" filter="url(#f1bh1r8axtkzw5)" height="36.2969" style="stroke: #A80036; stroke-width: 1.5;" width="82" x="418" y="217.9531"/><rect fill="#FEFECE" height="5" style="stroke: #A80036; stroke-width: 1.5;" width="10" x="413" y="222.9531"/><rect fill="#FEFECE" height="5" style="stroke: #A80036; stroke-width: 1.5;" width="10" x="413" y="244.25"/><text fill="#000000" font-family="sans-serif" font-size="14" lengthAdjust="spacingAndGlyphs" textLength="62" x="428" y="240.9482">REST API</text><rect fill="#FEFECE" filter="url(#f1bh1r8axtkzw5)" height="36.2969" style="stroke: #A80036; stroke-width: 1.5;" width="174" x="372" y="353.9531"/><rect fill="#FEFECE" height="5" style="stroke: #A80036; stroke-width: 1.5;" width="10" x="367" y="358.9531"/><rect fill="#FEFECE" height="5" style="stroke: #A80036; stroke-width: 1.5;" width="10" x="367" y="380.25"/><text fill="#000000" font-family="sans-serif" font-size="14" lengthAdjust="spacingAndGlyphs" textLength="154" x="382" y="376.9482">Authentication Service</text><rect fill="#FEFECE" filter="url(#f1bh1r8axtkzw5)" height="36.2969" style="stroke: #A80036; stroke-width: 1.5;" width="136" x="201" y="353.9531"/><rect fill="#FEFECE" height="5" style="stroke: #A80036; stroke-width: 1.5;" width="10" x="196" y="358.9531"/><rect fill="#FEFECE" height="5" style="stroke: #A80036; stroke-width: 1.5;" width="10" x="196" y="380.25"/><text fill="#000000" font-family="sans-serif" font-size="14" lengthAdjust="spacingAndGlyphs" textLength="116" x="211" y="376.9482">Google Maps API</text><path d="M641.98,254.1931 C601.65,279.9231 526.18,328.0831 485.92,353.7731 " fill="none" id="QR-AS" style="stroke: #A80036; stroke-width: 1.0;"/><text fill="#000000" font-family="sans-serif" font-size="13" lengthAdjust="spacingAndGlyphs" textLength="32" x="589" y="299.02">HTTP</text><path d="M666.55,254.1931 C662.91,279.9231 656.08,328.0831 652.44,353.7731 " fill="none" id="QR-SADB" style="stroke: #A80036; stroke-width: 1.0;"/><path d="M680.58,254.1931 C697.86,279.9231 730.21,328.0831 747.46,353.7731 " fill="none" id="QR-SBDB" style="stroke: #A80036; stroke-width: 1.0;"/><path d="M115.74,121.0831 C144.68,146.1831 198.31,192.7131 227.25,217.8231 " fill="none" id="UI-RN" style="stroke: #A80036; stroke-width: 1.0;"/><path d="M154.08,102.9531 C165.67,102.9531 177.26,102.9531 188.86,102.9531 " fill="none" id="UI-NS" style="stroke: #A80036; stroke-width: 1.0;"/><path d="M249.83,254.1931 C254.06,279.9231 261.96,328.0831 266.18,353.7731 " fill="none" id="RN-GMA" style="stroke: #A80036; stroke-width: 1.0;"/><text fill="#000000" font-family="sans-serif" font-size="13" lengthAdjust="spacingAndGlyphs" textLength="32" x="258" y="299.02">HTTP</text><path d="M500.24,235.9531 C532.37,235.9531 577.32,235.9531 612.75,235.9531 " fill="none" id="RAPI-QR" style="stroke: #A80036; stroke-width: 1.0;"/><text fill="#000000" font-family="sans-serif" font-size="13" lengthAdjust="spacingAndGlyphs" textLength="32" x="540.5" y="229.02">HTTP</text><path d="M459,254.1931 C459,279.9231 459,328.0831 459,353.7731 " fill="none" id="RAPI-AS" style="stroke: #A80036; stroke-width: 1.0;"/><text fill="#000000" font-family="sans-serif" font-size="13" lengthAdjust="spacingAndGlyphs" textLength="32" x="460" y="299.02">HTTP</text><path d="M339.68,235.9531 C366.98,235.9531 395.47,235.9531 417.77,235.9531 " fill="none" id="RN-RAPI" style="stroke: #A80036; stroke-width: 1.0;"/><text fill="#000000" font-family="sans-serif" font-size="13" lengthAdjust="spacingAndGlyphs" textLength="32" x="362.75" y="229.02">HTTP</text></g></svg>