<?xml version="1.0" encoding="UTF-8" standalone="no"?><svg xmlns="http://www.w3.org/2000/svg" xmlns:xlink="http://www.w3.org/1999/xlink" contentScriptType="application/ecmascript" contentStyleType="text/css" height="301px" preserveAspectRatio="none" style="width:314px;height:301px;" version="1.1" viewBox="0 0 314 301" width="314px" zoomAndPan="magnify"><defs><filter height="300%" id="fyclv8munueyd" width="300%" x="-1" y="-1"><feGaussianBlur result="blurOut" stdDeviation="2.0"/><feColorMatrix in="blurOut" result="blurOut2" type="matrix" values="0 0 0 0 0 0 0 0 0 0 0 0 0 0 0 0 0 0 .4 0"/><feOffset dx="4.0" dy="4.0" in="blurOut2" result="blurOut3"/><feBlend in="SourceGraphic" in2="blurOut3" mode="normal"/></filter></defs><g><text fill="#000000" font-family="sans-serif" font-size="18" lengthAdjust="spacingAndGlyphs" textLength="120" x="94.5" y="16.708">Physical View</text><polygon fill="#FFFFFF" filter="url(#fyclv8munueyd)" points="131.5,38.9531,141.5,28.9531,265.5,28.9531,265.5,65.25,255.5,75.25,131.5,75.25,131.5,38.9531" style="stroke: #000000; stroke-width: 1.5;"/><line style="stroke: #000000; stroke-width: 1.5;" x1="255.5" x2="264.5" y1="38.9531" y2="29.9531"/><line style="stroke: #000000; stroke-width: 1.5;" x1="131.5" x2="255.5" y1="38.9531" y2="38.9531"/><line style="stroke: #000000; stroke-width: 1.5;" x1="255.5" x2="255.5" y1="38.9531" y2="75.25"/><text fill="#000000" font-family="sans-serif" font-size="14" lengthAdjust="spacingAndGlyphs" textLength="94" x="146.5" y="61.9482">Mobile Phone</text><path d="M182.5,145.4531 C182.5,135.4531 225.5,135.4531 225.5,135.4531 C225.5,135.4531 268.5,135.4531 268.5,145.4531 L268.5,170.75 C268.5,180.75 225.5,180.75 225.5,180.75 C225.5,180.75 182.5,180.75 182.5,170.75 L182.5,145.4531 " fill="#FFFFFF" filter="url(#fyclv8munueyd)" style="stroke: #000000; stroke-width: 1.5;"/><path d="M182.5,145.4531 C182.5,155.4531 225.5,155.4531 225.5,155.4531 C225.5,155.4531 268.5,155.4531 268.5,145.4531 " fill="none" style="stroke: #000000; stroke-width: 1.5;"/><text fill="#000000" font-family="sans-serif" font-size="14" lengthAdjust="spacingAndGlyphs" textLength="66" x="192.5" y="172.4482">Database</text><polygon fill="#FFFFFF" filter="url(#fyclv8munueyd)" points="6,144.9531,16,134.9531,147,134.9531,147,171.25,137,181.25,6,181.25,6,144.9531" style="stroke: #000000; stroke-width: 1.5;"/><line style="stroke: #000000; stroke-width: 1.5;" x1="137" x2="146" y1="144.9531" y2="135.9531"/><line style="stroke: #000000; stroke-width: 1.5;" x1="6" x2="137" y1="144.9531" y2="144.9531"/><line style="stroke: #000000; stroke-width: 1.5;" x1="137" x2="137" y1="144.9531" y2="181.25"/><text fill="#000000" font-family="sans-serif" font-size="14" lengthAdjust="spacingAndGlyphs" textLength="101" x="21" y="167.9482">Hosting Server</text><path d="M199.6329,250.8836 C203.3335,244.1703 208.0649,242.7074 213.7605,248.6581 C217.1253,241.9149 221.8341,242.3092 226.6626,247.0076 C231.9484,240.6318 237.7946,240.5588 241.1981,248.8705 C246.397,242.6418 250.8876,244.5132 254.1746,250.8456 C261.5075,254.7733 262.1815,259.4699 255.8279,264.9966 C262.8077,270.8615 261.7195,277.0515 253.7449,280.9658 C249.8772,287.2828 244.1044,287.7909 240.1302,281.0771 C236.6879,289.0717 230.5191,288.4407 225.8687,282.2956 C222.038,288.988 216.719,288.4694 212.6713,282.5221 C207.1508,287.4452 202.7428,287.8096 198.9635,280.5612 C191.5153,277.113 192.152,270.4113 197.7001,265.8472 C190.7547,260.2312 192.9379,254.7378 199.6329,250.8836 " fill="#FFFFFF" style="stroke: #000000; stroke-width: 1.5;"/><text fill="#000000" font-family="sans-serif" font-size="14" lengthAdjust="spacingAndGlyphs" textLength="40" x="205.5" y="268.9482">Cloud</text><path d="M225.5,180.5031 C225.5,198.1131 225.5,222.9231 225.5,240.7131 " fill="none" id="DB-CL" style="stroke: #A80036; stroke-width: 1.0;"/><path d="M172.63,75.0131 C151.92,92.6531 123.03,117.2931 102.34,134.9331 " fill="none" id="MP-HS" style="stroke: #A80036; stroke-width: 1.0;"/><path d="M234.05,75.2331 C253.49,89.6231 275.75,110.2531 286.5,134.9531 C302.8,172.4231 272.31,215.1231 248.86,240.5131 " fill="none" id="MP-CL" style="stroke: #A80036; stroke-width: 1.0;"/><path d="M108.1,181.0131 C133.38,198.6531 168.67,223.2931 193.95,240.9331 " fill="none" id="HS-CL" style="stroke: #A80036; stroke-width: 1.0;"/><path d="M147.22,157.9531 C158.94,157.9531 170.66,157.9531 182.38,157.9531 " fill="none" id="HS-DB" style="stroke: #A80036; stroke-width: 1.0;"/></g></svg>