<?xml version="1.0" encoding="UTF-8" standalone="no"?><svg xmlns="http://www.w3.org/2000/svg" xmlns:xlink="http://www.w3.org/1999/xlink" contentScriptType="application/ecmascript" contentStyleType="text/css" height="428px" preserveAspectRatio="none" style="width:771px;height:428px;" version="1.1" viewBox="0 0 771 428" width="771px" zoomAndPan="magnify"><defs><filter height="300%" id="f1r9fk9abryt71" width="300%" x="-1" y="-1"><feGaussianBlur result="blurOut" stdDeviation="2.0"/><feColorMatrix in="blurOut" result="blurOut2" type="matrix" values="0 0 0 0 0 0 0 0 0 0 0 0 0 0 0 0 0 0 .4 0"/><feOffset dx="4.0" dy="4.0" in="blurOut2" result="blurOut3"/><feBlend in="SourceGraphic" in2="blurOut3" mode="normal"/></filter></defs><g><text fill="#000000" font-family="sans-serif" font-size="18" lengthAdjust="spacingAndGlyphs" textLength="159" x="317" y="16.708">Deployment View</text><polygon fill="#FFFFFF" filter="url(#f1r9fk9abryt71)" points="22,54.9531,32,44.9531,355,44.9531,355,259.9531,345,269.9531,22,269.9531,22,54.9531" style="stroke: #000000; stroke-width: 1.5;"/><line style="stroke: #000000; stroke-width: 1.5;" x1="345" x2="354" y1="54.9531" y2="45.9531"/><line style="stroke: #000000; stroke-width: 1.5;" x1="22" x2="345" y1="54.9531" y2="54.9531"/><line style="stroke: #000000; stroke-width: 1.5;" x1="345" x2="345" y1="54.9531" y2="269.9531"/><text fill="#000000" font-family="sans-serif" font-size="14" font-weight="bold" lengthAdjust="spacingAndGlyphs" textLength="106" x="131.5" y="70.9482">Mobile Phone</text><path d="M597,177.9531 C597,167.9531 678,167.9531 678,167.9531 C678,167.9531 759,167.9531 759,177.9531 L759,259.9531 C759,269.9531 678,269.9531 678,269.9531 C678,269.9531 597,269.9531 597,259.9531 L597,177.9531 " fill="#FFFFFF" filter="url(#f1r9fk9abryt71)" style="stroke: #000000; stroke-width: 1.5;"/><path d="M597,177.9531 C597,187.9531 678,187.9531 678,187.9531 C678,187.9531 759,187.9531 759,177.9531 " fill="none" style="stroke: #000000; stroke-width: 1.5;"/><text fill="#000000" font-family="sans-serif" font-size="14" font-weight="bold" lengthAdjust="spacingAndGlyphs" textLength="73" x="641.5" y="202.9482">Database</text><polygon fill="#FFFFFF" filter="url(#f1r9fk9abryt71)" points="379,187.9531,389,177.9531,573,177.9531,573,259.9531,563,269.9531,379,269.9531,379,187.9531" style="stroke: #000000; stroke-width: 1.5;"/><line style="stroke: #000000; stroke-width: 1.5;" x1="563" x2="572" y1="187.9531" y2="178.9531"/><line style="stroke: #000000; stroke-width: 1.5;" x1="379" x2="563" y1="187.9531" y2="187.9531"/><line style="stroke: #000000; stroke-width: 1.5;" x1="563" x2="563" y1="187.9531" y2="269.9531"/><text fill="#000000" font-family="sans-serif" font-size="14" font-weight="bold" lengthAdjust="spacingAndGlyphs" textLength="118" x="413" y="203.9482">Hosting Server</text><path d="M218.4215,327.8243 C225.2918,317.6066 234.4675,317.382 241.7527,327.3446 C248.897,312.6586 262.0025,314.8735 270.2828,326.0936 C278.6978,315.6005 290.667,314.1887 296.7818,328.5465 C300.672,316.0273 310.7359,314.496 318.4161,324.9825 C326.3473,314.4417 337.6822,315.7262 344.2826,326.5906 C350.5015,311.5377 362.5598,311.253 372.6586,322.3862 C380.8781,311.6766 391.2038,312.0208 397.6595,324.304 C403.6829,312.3337 416.3033,309.7318 424.5596,321.8058 C433.373,308.7221 443.4562,313.2858 449.7589,324.4184 C458.1827,312.891 470.5703,313.4637 475.764,327.6811 C481.0599,315.4656 494.1503,312.6479 502.3165,324.5165 C509.9692,315.2087 520.8365,316.9014 525.4813,327.9409 C534.3109,317.7013 543.996,318.0877 551.9211,329.068 C558.0807,313.7581 571.8732,314.1077 579.4782,327.6893 C598.2781,337.269 603.5517,349.5775 586.0902,365.4986 C598.4894,380.4574 598.4445,394.1288 577.8667,401.5695 C570.1342,413.4081 560.1078,411.493 554.7963,399.2502 C546.9611,412.8692 537.5146,413.2274 527.9439,401.0572 C519.9561,413.6241 509.573,410.0455 503.1273,399.4079 C497.8663,414.0094 485.5747,414.3229 476.6265,403.2075 C465.4863,414.9671 455.386,413.6133 447.5081,399.5315 C440.9642,413.6466 431.67,413.6199 422.9384,401.5871 C416.1323,414.971 407.6309,414.9137 398.9383,403.4059 C389.4095,416.934 378.339,413.7157 372.2676,400.0189 C365.5743,412.2288 354.5977,413.3461 345.5352,402.8024 C336.6483,411.5927 327.0793,410.4785 321.0211,399.3255 C315.2533,412.2784 304.8714,412.2688 295.859,402.9993 C288.3766,415.3795 275.358,414.4063 268.0349,402.8142 C260.5898,415.5044 250.3683,412.4176 243.3199,402.3828 C234.8013,414.8293 222.8799,415.9035 215.9024,400.8465 C199.9147,392.3405 199.0805,374.806 213.1479,364.0502 C197.9113,350.5183 200.4323,336.5193 218.4215,327.8243 " fill="#FFFFFF" style="stroke: #000000; stroke-width: 1.5;"/><text fill="#000000" font-family="sans-serif" font-size="14" font-weight="bold" lengthAdjust="spacingAndGlyphs" textLength="45" x="373" y="344.9482">Cloud</text><rect fill="#FEFECE" filter="url(#f1r9fk9abryt71)" height="36.2969" style="stroke: #A80036; stroke-width: 1.5;" width="116" x="38" y="84.9531"/><rect fill="#FEFECE" height="5" style="stroke: #A80036; stroke-width: 1.5;" width="10" x="33" y="89.9531"/><rect fill="#FEFECE" height="5" style="stroke: #A80036; stroke-width: 1.5;" width="10" x="33" y="111.25"/><text fill="#000000" font-family="sans-serif" font-size="14" lengthAdjust="spacingAndGlyphs" textLength="96" x="48" y="107.9482">User Interface</text><rect fill="#FEFECE" filter="url(#f1r9fk9abryt71)" height="36.2969" style="stroke: #A80036; stroke-width: 1.5;" width="185" x="154.5" y="217.9531"/><rect fill="#FEFECE" height="5" style="stroke: #A80036; stroke-width: 1.5;" width="10" x="149.5" y="222.9531"/><rect fill="#FEFECE" height="5" style="stroke: #A80036; stroke-width: 1.5;" width="10" x="149.5" y="244.25"/><text fill="#000000" font-family="sans-serif" font-size="14" lengthAdjust="spacingAndGlyphs" textLength="165" x="164.5" y="240.9482">React Native Application</text><rect fill="#FEFECE" filter="url(#f1r9fk9abryt71)" height="36.2969" style="stroke: #A80036; stroke-width: 1.5;" width="150" x="189" y="84.9531"/><rect fill="#FEFECE" height="5" style="stroke: #A80036; stroke-width: 1.5;" width="10" x="184" y="89.9531"/><rect fill="#FEFECE" height="5" style="stroke: #A80036; stroke-width: 1.5;" width="10" x="184" y="111.25"/><text fill="#000000" font-family="sans-serif" font-size="14" lengthAdjust="spacingAndGlyphs" textLength="130" x="199" y="107.9482">Notification Service</text><rect fill="#FEFECE" filter="url(#f1r9fk9abryt71)" height="36.2969" style="stroke: #A80036; stroke-width: 1.5;" width="129" x="613.5" y="217.9531"/><rect fill="#FEFECE" height="5" style="stroke: #A80036; stroke-width: 1.5;" width="10" x="608.5" y="222.9531"/><rect fill="#FEFECE" height="5" style="stroke: #A80036; stroke-width: 1.5;" width="10" x="608.5" y="244.25"/><text fill="#000000" font-family="sans-serif" font-size="14" lengthAdjust="spacingAndGlyphs" textLength="109" x="623.5" y="240.9482">Client Database</text><rect fill="#FEFECE" filter="url(#f1r9fk9abryt71)" height="36.2969" style="stroke: #A80036; stroke-width: 1.5;" width="82" x="440" y="217.9531"/><rect fill="#FEFECE" height="5" style="stroke: #A80036; stroke-width: 1.5;" width="10" x="435" y="222.9531"/><rect fill="#FEFECE" height="5" style="stroke: #A80036; stroke-width: 1.5;" width="10" x="435" y="244.25"/><text fill="#000000" font-family="sans-serif" font-size="14" lengthAdjust="spacingAndGlyphs" textLength="62" x="450" y="240.9482">REST API</text><rect fill="#FEFECE" filter="url(#f1r9fk9abryt71)" height="36.2969" style="stroke: #A80036; stroke-width: 1.5;" width="174" x="394" y="353.9531"/><rect fill="#FEFECE" height="5" style="stroke: #A80036; stroke-width: 1.5;" width="10" x="389" y="358.9531"/><rect fill="#FEFECE" height="5" style="stroke: #A80036; stroke-width: 1.5;" width="10" x="389" y="380.25"/><text fill="#000000" font-family="sans-serif" font-size="14" lengthAdjust="spacingAndGlyphs" textLength="154" x="404" y="376.9482">Authentication Service</text><rect fill="#FEFECE" filter="url(#f1r9fk9abryt71)" height="36.2969" style="stroke: #A80036; stroke-width: 1.5;" width="136" x="223" y="353.9531"/><rect fill="#FEFECE" height="5" style="stroke: #A80036; stroke-width: 1.5;" width="10" x="218" y="358.9531"/><rect fill="#FEFECE" height="5" style="stroke: #A80036; stroke-width: 1.5;" width="10" x="218" y="380.25"/><text fill="#000000" font-family="sans-serif" font-size="14" lengthAdjust="spacingAndGlyphs" textLength="116" x="233" y="376.9482">Google Maps API</text><path d="M652.65,254.1931 C614.82,279.9231 544.02,328.0831 506.25,353.7731 " fill="none" id="DB-AS" style="stroke: #A80036; stroke-width: 1.0;"/><text fill="#000000" font-family="sans-serif" font-size="13" lengthAdjust="spacingAndGlyphs" textLength="37" x="603" y="299.02">SWIFT</text><path d="M115.74,121.0831 C144.68,146.1831 198.31,192.7131 227.25,217.8231 " fill="none" id="UI-RN" style="stroke: #A80036; stroke-width: 1.0;"/><path d="M154.08,102.9531 C165.67,102.9531 177.26,102.9531 188.86,102.9531 " fill="none" id="UI-NS" style="stroke: #A80036; stroke-width: 1.0;"/><path d="M252.66,254.1931 C261.11,279.9231 276.92,328.0831 285.36,353.7731 " fill="none" id="RN-GMA" style="stroke: #A80036; stroke-width: 1.0;"/><text fill="#000000" font-family="sans-serif" font-size="13" lengthAdjust="spacingAndGlyphs" textLength="41" x="268" y="299.02">HTTPS</text><path d="M522.3,235.9531 C548.7,235.9531 583.49,235.9531 613.49,235.9531 " fill="none" id="RAPI-DB" style="stroke: #A80036; stroke-width: 1.0;"/><text fill="#000000" font-family="sans-serif" font-size="13" lengthAdjust="spacingAndGlyphs" textLength="32" x="551.75" y="229.02">HTTP</text><path d="M481,254.1931 C481,279.9231 481,328.0831 481,353.7731 " fill="none" id="RAPI-AS" style="stroke: #A80036; stroke-width: 1.0;"/><text fill="#000000" font-family="sans-serif" font-size="13" lengthAdjust="spacingAndGlyphs" textLength="32" x="482" y="299.02">HTTP</text><path d="M339.82,235.9531 C374.53,235.9531 412.2,235.9531 439.9,235.9531 " fill="none" id="RN-RAPI" style="stroke: #A80036; stroke-width: 1.0;"/><text fill="#000000" font-family="sans-serif" font-size="13" lengthAdjust="spacingAndGlyphs" textLength="41" x="369.25" y="229.02">HTTPS</text></g></svg>