<?xml version="1.0" encoding="UTF-8" standalone="no"?><svg xmlns="http://www.w3.org/2000/svg" xmlns:xlink="http://www.w3.org/1999/xlink" contentScriptType="application/ecmascript" contentStyleType="text/css" height="357px" preserveAspectRatio="none" style="width:993px;height:357px;" version="1.1" viewBox="0 0 993 357" width="993px" zoomAndPan="magnify"><defs/><g><text fill="#000000" font-family="Courier" font-size="14" font-weight="bold" lengthAdjust="spacingAndGlyphs" textLength="96" x="447" y="22.9951">Process View</text><line style="stroke: #383838; stroke-width: 1.0; stroke-dasharray: 5.0,5.0;" x1="71" x2="71" y1="64.5938" y2="317.6563"/><line style="stroke: #383838; stroke-width: 1.0; stroke-dasharray: 5.0,5.0;" x1="223" x2="223" y1="64.5938" y2="317.6563"/><line style="stroke: #383838; stroke-width: 1.0; stroke-dasharray: 5.0,5.0;" x1="351" x2="351" y1="64.5938" y2="317.6563"/><line style="stroke: #383838; stroke-width: 1.0; stroke-dasharray: 5.0,5.0;" x1="551" x2="551" y1="64.5938" y2="317.6563"/><line style="stroke: #383838; stroke-width: 1.0; stroke-dasharray: 5.0,5.0;" x1="699" x2="699" y1="64.5938" y2="317.6563"/><line style="stroke: #383838; stroke-width: 1.0; stroke-dasharray: 5.0,5.0;" x1="827" x2="827" y1="64.5938" y2="317.6563"/><line style="stroke: #383838; stroke-width: 1.0; stroke-dasharray: 5.0,5.0;" x1="943" x2="943" y1="64.5938" y2="317.6563"/><rect fill="#F8F8F8" height="30.2969" style="stroke: #383838; stroke-width: 1.5;" width="126" x="8" y="33.2969"/><text fill="#000000" font-family="Courier" font-size="14" lengthAdjust="spacingAndGlyphs" textLength="112" x="15" y="53.292">User Interface</text><rect fill="#F8F8F8" height="30.2969" style="stroke: #383838; stroke-width: 1.5;" width="126" x="8" y="316.6563"/><text fill="#000000" font-family="Courier" font-size="14" lengthAdjust="spacingAndGlyphs" textLength="112" x="15" y="336.6514">User Interface</text><rect fill="#F8F8F8" height="30.2969" style="stroke: #383838; stroke-width: 1.5;" width="158" x="144" y="33.2969"/><text fill="#000000" font-family="Courier" font-size="14" lengthAdjust="spacingAndGlyphs" textLength="144" x="151" y="53.292">Mobile Application</text><rect fill="#F8F8F8" height="30.2969" style="stroke: #383838; stroke-width: 1.5;" width="158" x="144" y="316.6563"/><text fill="#000000" font-family="Courier" font-size="14" lengthAdjust="spacingAndGlyphs" textLength="144" x="151" y="336.6514">Mobile Application</text><rect fill="#F8F8F8" height="30.2969" style="stroke: #383838; stroke-width: 1.5;" width="78" x="312" y="33.2969"/><text fill="#000000" font-family="Courier" font-size="14" lengthAdjust="spacingAndGlyphs" textLength="64" x="319" y="53.292">REST API</text><rect fill="#F8F8F8" height="30.2969" style="stroke: #383838; stroke-width: 1.5;" width="78" x="312" y="316.6563"/><text fill="#000000" font-family="Courier" font-size="14" lengthAdjust="spacingAndGlyphs" textLength="64" x="319" y="336.6514">REST API</text><rect fill="#F8F8F8" height="30.2969" style="stroke: #383838; stroke-width: 1.5;" width="174" x="464" y="33.2969"/><text fill="#000000" font-family="Courier" font-size="14" lengthAdjust="spacingAndGlyphs" textLength="160" x="471" y="53.292">Notification Service</text><rect fill="#F8F8F8" height="30.2969" style="stroke: #383838; stroke-width: 1.5;" width="174" x="464" y="316.6563"/><text fill="#000000" font-family="Courier" font-size="14" lengthAdjust="spacingAndGlyphs" textLength="160" x="471" y="336.6514">Notification Service</text><rect fill="#F8F8F8" height="30.2969" style="stroke: #383838; stroke-width: 1.5;" width="102" x="648" y="33.2969"/><text fill="#000000" font-family="Courier" font-size="14" lengthAdjust="spacingAndGlyphs" textLength="88" x="655" y="53.292">Payment API</text><rect fill="#F8F8F8" height="30.2969" style="stroke: #383838; stroke-width: 1.5;" width="102" x="648" y="316.6563"/><text fill="#000000" font-family="Courier" font-size="14" lengthAdjust="spacingAndGlyphs" textLength="88" x="655" y="336.6514">Payment API</text><rect fill="#F8F8F8" height="30.2969" style="stroke: #383838; stroke-width: 1.5;" width="134" x="760" y="33.2969"/><text fill="#000000" font-family="Courier" font-size="14" lengthAdjust="spacingAndGlyphs" textLength="120" x="767" y="53.292">Google Auth API</text><rect fill="#F8F8F8" height="30.2969" style="stroke: #383838; stroke-width: 1.5;" width="134" x="760" y="316.6563"/><text fill="#000000" font-family="Courier" font-size="14" lengthAdjust="spacingAndGlyphs" textLength="120" x="767" y="336.6514">Google Auth API</text><rect fill="#F8F8F8" height="30.2969" style="stroke: #383838; stroke-width: 1.5;" width="78" x="904" y="33.2969"/><text fill="#000000" font-family="Courier" font-size="14" lengthAdjust="spacingAndGlyphs" textLength="64" x="911" y="53.292">Database</text><rect fill="#F8F8F8" height="30.2969" style="stroke: #383838; stroke-width: 1.5;" width="78" x="904" y="316.6563"/><text fill="#000000" font-family="Courier" font-size="14" lengthAdjust="spacingAndGlyphs" textLength="64" x="911" y="336.6514">Database</text><polygon fill="#383838" points="211,91.7266,221,95.7266,211,99.7266,215,95.7266" style="stroke: #383838; stroke-width: 1.0;"/><line style="stroke: #383838; stroke-width: 1.0;" x1="71" x2="217" y1="95.7266" y2="95.7266"/><text fill="#000000" font-family="Courier" font-size="13" lengthAdjust="spacingAndGlyphs" textLength="96" x="78" y="90.6606">create order</text><polygon fill="#383838" points="339,120.8594,349,124.8594,339,128.8594,343,124.8594" style="stroke: #383838; stroke-width: 1.0;"/><line style="stroke: #383838; stroke-width: 1.0;" x1="223" x2="345" y1="124.8594" y2="124.8594"/><text fill="#000000" font-family="Courier" font-size="13" lengthAdjust="spacingAndGlyphs" textLength="104" x="230" y="119.7935">request order</text><polygon fill="#383838" points="815,149.9922,825,153.9922,815,157.9922,819,153.9922" style="stroke: #383838; stroke-width: 1.0;"/><line style="stroke: #383838; stroke-width: 1.0;" x1="351" x2="821" y1="153.9922" y2="153.9922"/><text fill="#000000" font-family="Courier" font-size="13" lengthAdjust="spacingAndGlyphs" textLength="136" x="358" y="148.9263">authenticate user</text><polygon fill="#383838" points="687,179.125,697,183.125,687,187.125,691,183.125" style="stroke: #383838; stroke-width: 1.0;"/><line style="stroke: #383838; stroke-width: 1.0;" x1="351" x2="693" y1="183.125" y2="183.125"/><text fill="#000000" font-family="Courier" font-size="13" lengthAdjust="spacingAndGlyphs" textLength="120" x="358" y="178.0591">request payment</text><polygon fill="#383838" points="362,208.2578,352,212.2578,362,216.2578,358,212.2578" style="stroke: #383838; stroke-width: 1.0;"/><line style="stroke: #383838; stroke-width: 1.0;" x1="356" x2="698" y1="212.2578" y2="212.2578"/><text fill="#000000" font-family="Courier" font-size="13" lengthAdjust="spacingAndGlyphs" textLength="120" x="368" y="207.1919">payment success</text><polygon fill="#383838" points="931,237.3906,941,241.3906,931,245.3906,935,241.3906" style="stroke: #383838; stroke-width: 1.0;"/><line style="stroke: #383838; stroke-width: 1.0;" x1="351" x2="937" y1="241.3906" y2="241.3906"/><text fill="#000000" font-family="Courier" font-size="13" lengthAdjust="spacingAndGlyphs" textLength="80" x="358" y="236.3247">save order</text><polygon fill="#383838" points="539,266.5234,549,270.5234,539,274.5234,543,270.5234" style="stroke: #383838; stroke-width: 1.0;"/><line style="stroke: #383838; stroke-width: 1.0;" x1="351" x2="545" y1="270.5234" y2="270.5234"/><text fill="#000000" font-family="Courier" font-size="13" lengthAdjust="spacingAndGlyphs" textLength="176" x="358" y="265.4575">inform payment success</text><polygon fill="#383838" points="82,295.6563,72,299.6563,82,303.6563,78,299.6563" style="stroke: #383838; stroke-width: 1.0;"/><line style="stroke: #383838; stroke-width: 1.0;" x1="76" x2="550" y1="299.6563" y2="299.6563"/><text fill="#000000" font-family="Courier" font-size="13" lengthAdjust="spacingAndGlyphs" textLength="288" x="88" y="294.5903">send notification of payment success</text></g></svg>