<?xml version="1.0" encoding="UTF-8" standalone="no"?><svg xmlns="http://www.w3.org/2000/svg" xmlns:xlink="http://www.w3.org/1999/xlink" contentScriptType="application/ecmascript" contentStyleType="text/css" height="122px" preserveAspectRatio="none" style="width:628px;height:122px;" version="1.1" viewBox="0 0 628 122" width="628px" zoomAndPan="magnify"><defs/><g><rect fill="#FFFFFF" height="87" style="stroke: #000000; stroke-width: 1.5;" width="595" x="22" y="24"/><text fill="#000000" font-family="sans-serif" font-size="14" font-weight="bold" lengthAdjust="spacingAndGlyphs" textLength="157" x="241" y="38.9951">Add new food truck</text><rect fill="#F8F8F8" height="36.2969" style="stroke: #000000; stroke-width: 1.5;" width="141" x="38.5" y="59"/><text fill="#000000" font-family="sans-serif" font-size="14" lengthAdjust="spacingAndGlyphs" textLength="121" x="48.5" y="81.9951">Food truck owner</text><rect fill="#F8F8F8" height="36.2969" style="stroke: #000000; stroke-width: 1.5;" width="90" x="511" y="59"/><text fill="#000000" font-family="sans-serif" font-size="14" lengthAdjust="spacingAndGlyphs" textLength="70" x="521" y="81.9951">max 5 min</text><rect fill="#F8F8F8" height="36.2969" style="stroke: #383838; stroke-width: 1.5;" width="71" x="269.5" y="59"/><rect fill="#F8F8F8" height="5" style="stroke: #383838; stroke-width: 1.5;" width="10" x="264.5" y="64"/><rect fill="#F8F8F8" height="5" style="stroke: #383838; stroke-width: 1.5;" width="10" x="264.5" y="85.2969"/><text fill="#000000" font-family="sans-serif" font-size="14" lengthAdjust="spacingAndGlyphs" textLength="51" x="279.5" y="81.9951">System</text><path d="M179.76,77 C208.12,77 239.78,77 264.17,77 " fill="none" id="Source-&gt;System" style="stroke: #383838; stroke-width: 1.0;"/><polygon fill="#383838" points="269.26,77,260.26,73,264.26,77,260.26,81,269.26,77" style="stroke: #383838; stroke-width: 1.0;"/><text fill="#000000" font-family="sans-serif" font-size="13" lengthAdjust="spacingAndGlyphs" textLength="53" x="198" y="70.0669">add new</text><path d="M340.7,77 C383.79,77 456.55,77 505.41,77 " fill="none" id="System-&gt;Measure" style="stroke: #383838; stroke-width: 1.0;"/><polygon fill="#383838" points="510.66,77,501.66,73,505.66,77,501.66,81,510.66,77" style="stroke: #383838; stroke-width: 1.0;"/><text fill="#000000" font-family="sans-serif" font-size="13" lengthAdjust="spacingAndGlyphs" textLength="134" x="358.75" y="70.0669">new truck on the app</text></g></svg>