<?xml version="1.0" encoding="UTF-8" standalone="no"?><svg xmlns="http://www.w3.org/2000/svg" xmlns:xlink="http://www.w3.org/1999/xlink" contentScriptType="application/ecmascript" contentStyleType="text/css" height="444px" preserveAspectRatio="none" style="width:824px;height:444px;" version="1.1" viewBox="0 0 824 444" width="824px" zoomAndPan="magnify"><defs><filter height="300%" id="f181aanr2tald6" width="300%" x="-1" y="-1"><feGaussianBlur result="blurOut" stdDeviation="2.0"/><feColorMatrix in="blurOut" result="blurOut2" type="matrix" values="0 0 0 0 0 0 0 0 0 0 0 0 0 0 0 0 0 0 .4 0"/><feOffset dx="4.0" dy="4.0" in="blurOut2" result="blurOut3"/><feBlend in="SourceGraphic" in2="blurOut3" mode="normal"/></filter></defs><g><text fill="#000000" font-family="sans-serif" font-size="18" lengthAdjust="spacingAndGlyphs" textLength="159" x="343.5" y="16.708">Deployment View</text><polygon fill="#FFFFFF" filter="url(#f181aanr2tald6)" points="22,54.9531,32,44.9531,355,44.9531,355,259.9531,345,269.9531,22,269.9531,22,54.9531" style="stroke: #000000; stroke-width: 1.5;"/><line style="stroke: #000000; stroke-width: 1.5;" x1="345" x2="354" y1="54.9531" y2="45.9531"/><line style="stroke: #000000; stroke-width: 1.5;" x1="22" x2="345" y1="54.9531" y2="54.9531"/><line style="stroke: #000000; stroke-width: 1.5;" x1="345" x2="345" y1="54.9531" y2="269.9531"/><text fill="#000000" font-family="sans-serif" font-size="14" font-weight="bold" lengthAdjust="spacingAndGlyphs" textLength="106" x="131.5" y="70.9482">Mobile Phone</text><path d="M597,177.9531 C597,167.9531 704.5,167.9531 704.5,167.9531 C704.5,167.9531 812,167.9531 812,177.9531 L812,395.9531 C812,405.9531 704.5,405.9531 704.5,405.9531 C704.5,405.9531 597,405.9531 597,395.9531 L597,177.9531 " fill="#FFFFFF" filter="url(#f181aanr2tald6)" style="stroke: #000000; stroke-width: 1.5;"/><path d="M597,177.9531 C597,187.9531 704.5,187.9531 704.5,187.9531 C704.5,187.9531 812,187.9531 812,177.9531 " fill="none" style="stroke: #000000; stroke-width: 1.5;"/><text fill="#000000" font-family="sans-serif" font-size="14" font-weight="bold" lengthAdjust="spacingAndGlyphs" textLength="73" x="668" y="202.9482">Database</text><polygon fill="#FFFFFF" filter="url(#f181aanr2tald6)" points="379,187.9531,389,177.9531,573,177.9531,573,259.9531,563,269.9531,379,269.9531,379,187.9531" style="stroke: #000000; stroke-width: 1.5;"/><line style="stroke: #000000; stroke-width: 1.5;" x1="563" x2="572" y1="187.9531" y2="178.9531"/><line style="stroke: #000000; stroke-width: 1.5;" x1="379" x2="563" y1="187.9531" y2="187.9531"/><line style="stroke: #000000; stroke-width: 1.5;" x1="563" x2="563" y1="187.9531" y2="269.9531"/><text fill="#000000" font-family="sans-serif" font-size="14" font-weight="bold" lengthAdjust="spacingAndGlyphs" textLength="118" x="413" y="203.9482">Hosting Server</text><path d="M64.4791,330.8424 C73.3642,311.4365 91.2994,313.889 100.4306,330.5974 C109.595,312.191 127.0567,309.9396 137.3314,329.5189 C143.4623,310.3659 160.7678,311.9239 171.2912,324.872 C182.1577,304.9014 199.478,304.3254 209.9069,325.2849 C221.3932,308.0578 234.1111,307.2158 248.3316,322.0032 C259.2221,306.7926 271.6268,312.8867 278.4767,326.2639 C288.4801,306.6611 303.5676,304.3879 318.938,320.118 C332.1958,308.1197 345.7828,310.2053 353.4875,326.8227 C362.0961,307.53 380.7173,310.2464 390.7227,325.3089 C398.9658,309.5691 412.7307,308.1271 421.8785,324.4292 C437.3938,305.2925 450.8161,306.9772 463.46,327.4439 C475.7157,311.7528 486.0975,313.1659 495.6372,330.1209 C505.5468,312.3375 520.5857,315.8233 530.1913,330.4451 C541.3831,313.427 560.4322,312.6895 568.8026,333.3373 C585.5215,339.873 588.3878,353.6999 575.5985,366.3162 C593.6653,379.4422 588.0624,396.6445 569.9617,404.4203 C559.6249,420.2726 545.0639,421.3875 534.4302,404.7449 C523.2143,423.422 508.2243,424.0927 496.8322,404.9199 C487.4451,419.2404 470.7346,421.309 461.9577,404.2421 C452.5898,422.3575 442.4315,426.0348 427.8903,409.2992 C413.7481,426.654 398.9835,429.7351 385.8032,408.2567 C380.1859,425.09 366.3428,424.7877 355.8762,413.399 C346.0146,431.8174 331.5456,432.4957 319.9172,415.1767 C304.3097,431.1537 291.4172,429.2975 280.1646,410.236 C268.152,424.9125 251.1378,423.9054 242.3419,406.4498 C236.4557,421.291 222.064,424.3475 212.3461,410.4489 C195.9153,425.6787 182.4947,425.7261 173.0981,403.147 C161.1575,419.1196 148.6486,420.9458 137.1566,402.6762 C127.2298,419.441 110.0534,421.0646 101.4536,401.3765 C93.2622,416.162 78.9383,418.4624 68.5938,403.7773 C44.9053,393.6116 46.1534,378.7722 63.6686,363.5606 C46.5182,353.476 50.5055,340.156 64.4791,330.8424 " fill="#FFFFFF" style="stroke: #000000; stroke-width: 1.5;"/><text fill="#000000" font-family="sans-serif" font-size="14" font-weight="bold" lengthAdjust="spacingAndGlyphs" textLength="45" x="291.5" y="344.9482">Cloud</text><rect fill="#FEFECE" filter="url(#f181aanr2tald6)" height="36.2969" style="stroke: #A80036; stroke-width: 1.5;" width="116" x="38" y="84.9531"/><rect fill="#FEFECE" height="5" style="stroke: #A80036; stroke-width: 1.5;" width="10" x="33" y="89.9531"/><rect fill="#FEFECE" height="5" style="stroke: #A80036; stroke-width: 1.5;" width="10" x="33" y="111.25"/><text fill="#000000" font-family="sans-serif" font-size="14" lengthAdjust="spacingAndGlyphs" textLength="96" x="48" y="107.9482">User Interface</text><rect fill="#FEFECE" filter="url(#f181aanr2tald6)" height="36.2969" style="stroke: #A80036; stroke-width: 1.5;" width="185" x="46.5" y="217.9531"/><rect fill="#FEFECE" height="5" style="stroke: #A80036; stroke-width: 1.5;" width="10" x="41.5" y="222.9531"/><rect fill="#FEFECE" height="5" style="stroke: #A80036; stroke-width: 1.5;" width="10" x="41.5" y="244.25"/><text fill="#000000" font-family="sans-serif" font-size="14" lengthAdjust="spacingAndGlyphs" textLength="165" x="56.5" y="240.9482">React Native Application</text><rect fill="#FEFECE" filter="url(#f181aanr2tald6)" height="36.2969" style="stroke: #A80036; stroke-width: 1.5;" width="150" x="189" y="84.9531"/><rect fill="#FEFECE" height="5" style="stroke: #A80036; stroke-width: 1.5;" width="10" x="184" y="89.9531"/><rect fill="#FEFECE" height="5" style="stroke: #A80036; stroke-width: 1.5;" width="10" x="184" y="111.25"/><text fill="#000000" font-family="sans-serif" font-size="14" lengthAdjust="spacingAndGlyphs" textLength="130" x="199" y="107.9482">Notification Service</text><rect fill="#FEFECE" filter="url(#f181aanr2tald6)" height="36.2969" style="stroke: #A80036; stroke-width: 1.5;" width="112" x="613" y="217.9531"/><rect fill="#FEFECE" height="5" style="stroke: #A80036; stroke-width: 1.5;" width="10" x="608" y="222.9531"/><rect fill="#FEFECE" height="5" style="stroke: #A80036; stroke-width: 1.5;" width="10" x="608" y="244.25"/><text fill="#000000" font-family="sans-serif" font-size="14" lengthAdjust="spacingAndGlyphs" textLength="92" x="623" y="240.9482">Query Router</text><rect fill="#FEFECE" filter="url(#f181aanr2tald6)" height="36.2969" style="stroke: #A80036; stroke-width: 1.5;" width="73" x="613.5" y="353.9531"/><rect fill="#FEFECE" height="5" style="stroke: #A80036; stroke-width: 1.5;" width="10" x="608.5" y="358.9531"/><rect fill="#FEFECE" height="5" style="stroke: #A80036; stroke-width: 1.5;" width="10" x="608.5" y="380.25"/><text fill="#000000" font-family="sans-serif" font-size="14" lengthAdjust="spacingAndGlyphs" textLength="53" x="623.5" y="376.9482">Shard A</text><rect fill="#FEFECE" filter="url(#f181aanr2tald6)" height="36.2969" style="stroke: #A80036; stroke-width: 1.5;" width="74" x="722" y="353.9531"/><rect fill="#FEFECE" height="5" style="stroke: #A80036; stroke-width: 1.5;" width="10" x="717" y="358.9531"/><rect fill="#FEFECE" height="5" style="stroke: #A80036; stroke-width: 1.5;" width="10" x="717" y="380.25"/><text fill="#000000" font-family="sans-serif" font-size="14" lengthAdjust="spacingAndGlyphs" textLength="54" x="732" y="376.9482">Shard B</text><rect fill="#FEFECE" filter="url(#f181aanr2tald6)" height="36.2969" style="stroke: #A80036; stroke-width: 1.5;" width="82" x="412" y="217.9531"/><rect fill="#FEFECE" height="5" style="stroke: #A80036; stroke-width: 1.5;" width="10" x="407" y="222.9531"/><rect fill="#FEFECE" height="5" style="stroke: #A80036; stroke-width: 1.5;" width="10" x="407" y="244.25"/><text fill="#000000" font-family="sans-serif" font-size="14" lengthAdjust="spacingAndGlyphs" textLength="62" x="422" y="240.9482">REST API</text><rect fill="#FEFECE" filter="url(#f181aanr2tald6)" height="36.2969" style="stroke: #A80036; stroke-width: 1.5;" width="174" x="383" y="353.9531"/><rect fill="#FEFECE" height="5" style="stroke: #A80036; stroke-width: 1.5;" width="10" x="378" y="358.9531"/><rect fill="#FEFECE" height="5" style="stroke: #A80036; stroke-width: 1.5;" width="10" x="378" y="380.25"/><text fill="#000000" font-family="sans-serif" font-size="14" lengthAdjust="spacingAndGlyphs" textLength="154" x="393" y="376.9482">Authentication Service</text><rect fill="#FEFECE" filter="url(#f181aanr2tald6)" height="36.2969" style="stroke: #A80036; stroke-width: 1.5;" width="136" x="71" y="353.9531"/><rect fill="#FEFECE" height="5" style="stroke: #A80036; stroke-width: 1.5;" width="10" x="66" y="358.9531"/><rect fill="#FEFECE" height="5" style="stroke: #A80036; stroke-width: 1.5;" width="10" x="66" y="380.25"/><text fill="#000000" font-family="sans-serif" font-size="14" lengthAdjust="spacingAndGlyphs" textLength="116" x="81" y="376.9482">Google Maps API</text><rect fill="#FEFECE" filter="url(#f181aanr2tald6)" height="36.2969" style="stroke: #A80036; stroke-width: 1.5;" width="105" x="242.5" y="353.9531"/><rect fill="#FEFECE" height="5" style="stroke: #A80036; stroke-width: 1.5;" width="10" x="237.5" y="358.9531"/><rect fill="#FEFECE" height="5" style="stroke: #A80036; stroke-width: 1.5;" width="10" x="237.5" y="380.25"/><text fill="#000000" font-family="sans-serif" font-size="14" lengthAdjust="spacingAndGlyphs" textLength="85" x="252.5" y="376.9482">Payment API</text><path d="M643.39,254.1931 C605.18,279.9231 533.66,328.0831 495.51,353.7731 " fill="none" id="QR-AS" style="stroke: #A80036; stroke-width: 1.0;"/><text fill="#000000" font-family="sans-serif" font-size="13" lengthAdjust="spacingAndGlyphs" textLength="32" x="594" y="299.02">HTTP</text><path d="M666.55,254.1931 C662.91,279.9231 656.08,328.0831 652.44,353.7731 " fill="none" id="QR-SADB" style="stroke: #A80036; stroke-width: 1.0;"/><path d="M680.58,254.1931 C697.86,279.9231 730.21,328.0831 747.46,353.7731 " fill="none" id="QR-SBDB" style="stroke: #A80036; stroke-width: 1.0;"/><path d="M101.62,121.0831 C109.86,146.1831 125.14,192.7131 133.38,217.8231 " fill="none" id="UI-RN" style="stroke: #A80036; stroke-width: 1.0;"/><path d="M154.08,102.9531 C165.67,102.9531 177.26,102.9531 188.86,102.9531 " fill="none" id="UI-NS" style="stroke: #A80036; stroke-width: 1.0;"/><path d="M139,254.1931 C139,279.9231 139,328.0831 139,353.7731 " fill="none" id="RN-GMA" style="stroke: #A80036; stroke-width: 1.0;"/><text fill="#000000" font-family="sans-serif" font-size="13" lengthAdjust="spacingAndGlyphs" textLength="32" x="140" y="299.02">HTTP</text><path d="M494.14,235.9531 C527.8,235.9531 575.74,235.9531 612.92,235.9531 " fill="none" id="RAPI-QR" style="stroke: #A80036; stroke-width: 1.0;"/><text fill="#000000" font-family="sans-serif" font-size="13" lengthAdjust="spacingAndGlyphs" textLength="32" x="537.5" y="229.02">HTTP</text><path d="M455.19,254.1931 C458.45,279.9231 464.56,328.0831 467.82,353.7731 " fill="none" id="RAPI-AS" style="stroke: #A80036; stroke-width: 1.0;"/><text fill="#000000" font-family="sans-serif" font-size="13" lengthAdjust="spacingAndGlyphs" textLength="32" x="461" y="299.02">HTTP</text><path d="M432.67,254.1931 C402.33,279.9231 345.55,328.0831 315.25,353.7731 " fill="none" id="RAPI-PA" style="stroke: #A80036; stroke-width: 1.0;"/><text fill="#000000" font-family="sans-serif" font-size="13" lengthAdjust="spacingAndGlyphs" textLength="32" x="393" y="299.02">HTTP</text><path d="M231.51,235.9531 C291.39,235.9531 366.42,235.9531 411.98,235.9531 " fill="none" id="RN-RAPI" style="stroke: #A80036; stroke-width: 1.0;"/><text fill="#000000" font-family="sans-serif" font-size="13" lengthAdjust="spacingAndGlyphs" textLength="32" x="305.75" y="229.02">HTTP</text></g></svg>