<?xml version="1.0" encoding="UTF-8" standalone="no"?><svg xmlns="http://www.w3.org/2000/svg" xmlns:xlink="http://www.w3.org/1999/xlink" contentScriptType="application/ecmascript" contentStyleType="text/css" height="556px" preserveAspectRatio="none" style="width:1264px;height:556px;" version="1.1" viewBox="0 0 1264 556" width="1264px" zoomAndPan="magnify"><defs/><g><rect fill="#F8F8F8" height="36.2969" style="stroke: #000000; stroke-width: 1.5;" width="92" x="319" y="105"/><text fill="#000000" font-family="Courier" font-size="14" lengthAdjust="spacingAndGlyphs" textLength="72" x="329" y="127.9951">User role</text><rect fill="#F8F8F8" height="36.2969" style="stroke: #000000; stroke-width: 1.5;" width="124" x="593" y="105"/><text fill="#000000" font-family="Courier" font-size="14" lengthAdjust="spacingAndGlyphs" textLength="104" x="603" y="127.9951">Notifications</text><rect fill="#F8F8F8" height="36.2969" style="stroke: #000000; stroke-width: 1.5;" width="108" x="436" y="315"/><text fill="#000000" font-family="Courier" font-size="14" lengthAdjust="spacingAndGlyphs" textLength="88" x="446" y="337.9951">List trucks</text><rect fill="#F8F8F8" height="36.2969" style="stroke: #000000; stroke-width: 1.5;" width="132" x="961" y="105"/><text fill="#000000" font-family="Courier" font-size="14" lengthAdjust="spacingAndGlyphs" textLength="112" x="971" y="127.9951">Authentication</text><rect fill="#F8F8F8" height="36.2969" style="stroke: #000000; stroke-width: 1.5;" width="124" x="132" y="202"/><text fill="#000000" font-family="Courier" font-size="14" lengthAdjust="spacingAndGlyphs" textLength="104" x="142" y="224.9951">Student space</text><rect fill="#F8F8F8" height="36.2969" style="stroke: #000000; stroke-width: 1.5;" width="148" x="291" y="202"/><text fill="#000000" font-family="Courier" font-size="14" lengthAdjust="spacingAndGlyphs" textLength="128" x="301" y="224.9951">Restaurant space</text><rect fill="#F8F8F8" height="36.2969" style="stroke: #000000; stroke-width: 1.5;" width="92" x="309" y="315"/><text fill="#000000" font-family="Courier" font-size="14" lengthAdjust="spacingAndGlyphs" textLength="72" x="319" y="337.9951">My trucks</text><rect fill="#F8F8F8" height="36.2969" style="stroke: #000000; stroke-width: 1.5;" width="124" x="219" y="412"/><text fill="#000000" font-family="Courier" font-size="14" lengthAdjust="spacingAndGlyphs" textLength="104" x="229" y="434.9951">Manage trucks</text><rect fill="#F8F8F8" height="36.2969" style="stroke: #000000; stroke-width: 1.5;" width="172" x="378" y="412"/><text fill="#000000" font-family="Courier" font-size="14" lengthAdjust="spacingAndGlyphs" textLength="152" x="388" y="434.9951">Modify informations</text><rect fill="#F8F8F8" height="36.2969" style="stroke: #000000; stroke-width: 1.5;" width="124" x="585" y="412"/><text fill="#000000" font-family="Courier" font-size="14" lengthAdjust="spacingAndGlyphs" textLength="104" x="595" y="434.9951">Promote truck</text><rect fill="#F8F8F8" height="36.2969" style="stroke: #000000; stroke-width: 1.5;" width="124" x="219" y="509"/><text fill="#000000" font-family="Courier" font-size="14" lengthAdjust="spacingAndGlyphs" textLength="104" x="229" y="531.9951">Add new truck</text><rect fill="#F8F8F8" height="36.2969" style="stroke: #000000; stroke-width: 1.5;" width="116" x="378" y="509"/><text fill="#000000" font-family="Courier" font-size="14" lengthAdjust="spacingAndGlyphs" textLength="96" x="388" y="531.9951">Remove truck</text><rect fill="#F8F8F8" height="36.2969" style="stroke: #000000; stroke-width: 1.5;" width="100" x="84" y="509"/><text fill="#000000" font-family="Courier" font-size="14" lengthAdjust="spacingAndGlyphs" textLength="80" x="94" y="531.9951">Hide truck</text><rect fill="#F8F8F8" height="36.2969" style="stroke: #000000; stroke-width: 1.5;" width="100" x="165" y="315"/><text fill="#000000" font-family="Courier" font-size="14" lengthAdjust="spacingAndGlyphs" textLength="80" x="175" y="337.9951">My reviews</text><rect fill="#F8F8F8" height="36.2969" style="stroke: #000000; stroke-width: 1.5;" width="124" x="6" y="315"/><text fill="#000000" font-family="Courier" font-size="14" lengthAdjust="spacingAndGlyphs" textLength="104" x="16" y="337.9951">My favourites</text><rect fill="#F8F8F8" height="36.2969" style="stroke: #000000; stroke-width: 1.5;" width="52" x="21" y="412"/><text fill="#000000" font-family="Courier" font-size="14" lengthAdjust="spacingAndGlyphs" textLength="32" x="31" y="434.9951">Rate</text><rect fill="#F8F8F8" height="36.2969" style="stroke: #000000; stroke-width: 1.5;" width="76" x="108" y="412"/><text fill="#000000" font-family="Courier" font-size="14" lengthAdjust="spacingAndGlyphs" textLength="56" x="118" y="434.9951">Comment</text><rect fill="#F8F8F8" height="36.2969" style="stroke: #000000; stroke-width: 1.5;" width="164" x="573" y="202"/><text fill="#000000" font-family="Courier" font-size="14" lengthAdjust="spacingAndGlyphs" textLength="144" x="583" y="224.9951">Push notifications</text><rect fill="#F8F8F8" height="36.2969" style="stroke: #000000; stroke-width: 1.5;" width="100" x="772" y="202"/><text fill="#000000" font-family="Courier" font-size="14" lengthAdjust="spacingAndGlyphs" textLength="80" x="782" y="224.9951">Newsletter</text><rect fill="#F8F8F8" height="36.2969" style="stroke: #000000; stroke-width: 1.5;" width="196" x="579" y="315"/><text fill="#000000" font-family="Courier" font-size="14" lengthAdjust="spacingAndGlyphs" textLength="176" x="589" y="337.9951">Proximity notification</text><rect fill="#F8F8F8" height="36.2969" style="stroke: #000000; stroke-width: 1.5;" width="196" x="810" y="315"/><text fill="#000000" font-family="Courier" font-size="14" lengthAdjust="spacingAndGlyphs" textLength="176" x="820" y="337.9951">Promotion notification</text><rect fill="#F8F8F8" height="36.2969" style="stroke: #000000; stroke-width: 1.5;" width="92" x="744" y="412"/><text fill="#000000" font-family="Courier" font-size="14" lengthAdjust="spacingAndGlyphs" textLength="72" x="754" y="434.9951">Filtering</text><rect fill="#F8F8F8" height="36.2969" style="stroke: #000000; stroke-width: 1.5;" width="212" x="777" y="509"/><text fill="#000000" font-family="Courier" font-size="14" lengthAdjust="spacingAndGlyphs" textLength="192" x="787" y="531.9951">Proximity distance range</text><rect fill="#F8F8F8" height="36.2969" style="stroke: #000000; stroke-width: 1.5;" width="92" x="650" y="509"/><text fill="#000000" font-family="Courier" font-size="14" lengthAdjust="spacingAndGlyphs" textLength="72" x="660" y="531.9951">Food type</text><rect fill="#F8F8F8" height="36.2969" style="stroke: #000000; stroke-width: 1.5;" width="84" x="1050" y="202"/><text fill="#000000" font-family="Courier" font-size="14" lengthAdjust="spacingAndGlyphs" textLength="64" x="1060" y="224.9951">Firebase</text><rect fill="#F8F8F8" height="36.2969" style="stroke: #000000; stroke-width: 1.5;" width="84" x="1169" y="202"/><text fill="#000000" font-family="Courier" font-size="14" lengthAdjust="spacingAndGlyphs" textLength="64" x="1179" y="224.9951">Facebook</text><rect fill="#F8F8F8" height="36.2969" style="stroke: #000000; stroke-width: 1.5;" width="108" x="907" y="202"/><text fill="#000000" font-family="Courier" font-size="14" lengthAdjust="spacingAndGlyphs" textLength="88" x="917" y="224.9951">FTT account</text><rect fill="#F8F8F8" height="36.2969" style="stroke: #000000; stroke-width: 1.5;" width="132" x="448" y="8"/><text fill="#000000" font-family="Courier" font-size="14" lengthAdjust="spacingAndGlyphs" textLength="112" x="458" y="30.9951">Food Truck App</text><path d="M334.03,141.2 C304.49,157.61 260.05,182.3 229.19,199.45 " fill="none" id="A-&gt;I" style="stroke: #383838; stroke-width: 1.0;"/><ellipse cx="229.9849" cy="199.0061" fill="#383838" rx="6" ry="6" style="stroke: #383838; stroke-width: 1.5;"/><path d="M365,141.42 C365,156.96 365,179.78 365,196.66 " fill="none" id="A-&gt;J" style="stroke: #383838; stroke-width: 1.0;"/><ellipse cx="365" cy="195.69" fill="#383838" rx="6" ry="6" style="stroke: #383838; stroke-width: 1.5;"/><path d="M341.43,351.42 C329.12,367.23 310.93,390.57 297.73,407.52 " fill="none" id="MyTrucks-&gt;ManageTrucks" style="stroke: #383838; stroke-width: 1.0;"/><ellipse cx="298.1772" cy="406.9567" fill="#383838" rx="6" ry="6" style="stroke: #383838; stroke-width: 1.5;"/><path d="M374.74,351.2 C393.26,367.34 420.97,391.5 440.6,408.6 " fill="none" id="MyTrucks-&gt;ModifyInformations" style="stroke: #383838; stroke-width: 1.0;"/><ellipse cx="439.8861" cy="407.9787" fill="#383838" rx="6" ry="6" style="stroke: #383838; stroke-width: 1.5;"/><path d="M401.27,349.05 C452.31,365.66 534.51,392.4 589.62,410.33 " fill="none" id="MyTrucks-&gt;Promote" style="stroke: #383838; stroke-width: 1.0;"/><ellipse cx="588.8227" cy="410.079" fill="#FFFFFF" rx="6" ry="6" style="stroke: #383838; stroke-width: 1.5;"/><path d="M281,448.42 C281,463.96 281,486.78 281,503.66 " fill="none" id="ManageTrucks-&gt;AddTruck" style="stroke: #383838; stroke-width: 1.0;"/><ellipse cx="281" cy="502.69" fill="#383838" rx="6" ry="6" style="stroke: #383838; stroke-width: 1.5;"/><path d="M309.07,448.2 C335.73,464.55 375.8,489.1 403.76,506.24 " fill="none" id="ManageTrucks-&gt;RemoveTruck" style="stroke: #383838; stroke-width: 1.0;"/><ellipse cx="403.0271" cy="505.7802" fill="#383838" rx="6" ry="6" style="stroke: #383838; stroke-width: 1.5;"/><path d="M254.38,448.2 C229.2,464.48 191.41,488.9 164.9,506.03 " fill="none" id="ManageTrucks-&gt;HideTruck" style="stroke: #383838; stroke-width: 1.0;"/><ellipse cx="165.4593" cy="505.6633" fill="#FFFFFF" rx="6" ry="6" style="stroke: #383838; stroke-width: 1.5;"/><path d="M362.26,251.36 C360.43,271.75 358.07,297.88 356.55,314.78 " fill="none" id="J&lt;-MyTrucks" style="stroke: #383838; stroke-width: 1.0;"/><polygon fill="#383838" points="363.44,238.34,358.9154,243.955,362.3583,250.2912,366.8829,244.6761,363.44,238.34" style="stroke: #383838; stroke-width: 1.0;"/><path d="M197.28,238.34 C200.92,257.57 206.79,288.63 210.77,309.66 " fill="none" id="I-&gt;Reviews" style="stroke: #383838; stroke-width: 1.0;"/><ellipse cx="210.626" cy="308.8843" fill="#383838" rx="6" ry="6" style="stroke: #383838; stroke-width: 1.5;"/><path d="M174.59,238.1 C152.27,257.76 115.64,290.03 91.67,311.15 " fill="none" id="I-&gt;Favourites" style="stroke: #383838; stroke-width: 1.0;"/><ellipse cx="92.148" cy="310.7405" fill="#383838" rx="6" ry="6" style="stroke: #383838; stroke-width: 1.5;"/><path d="M173.12,357.68 C141.74,375.43 99.78,399.16 73.06,414.26 " fill="none" id="Reviews&lt;-Rate" style="stroke: #383838; stroke-width: 1.0;"/><polygon fill="#383838" points="184.58,351.2,177.3882,350.6725,174.1352,357.1082,181.327,357.6357,184.58,351.2" style="stroke: #383838; stroke-width: 1.0;"/><path d="M194.41,362.35 C182.76,378.39 168.57,397.92 158.58,411.69 " fill="none" id="Reviews&lt;-Comment" style="stroke: #383838; stroke-width: 1.0;"/><polygon fill="#383838" points="202.34,351.42,195.5782,353.9257,195.2906,361.1311,202.0523,358.6254,202.34,351.42" style="stroke: #383838; stroke-width: 1.0;"/><path d="M655,154.71 C655,170.27 655,188.59 655,201.69 " fill="none" id="Notifications&lt;-PushNotifications" style="stroke: #383838; stroke-width: 1.0;"/><polygon fill="#383838" points="655,141.42,651,147.42,655,153.42,659,147.42,655,141.42" style="stroke: #383838; stroke-width: 1.0;"/><path d="M696.89,147.83 C726.48,164.66 765.45,186.83 791.98,201.92 " fill="none" id="Notifications&lt;-Newsletter" style="stroke: #383838; stroke-width: 1.0;"/><polygon fill="#383838" points="685.24,141.2,688.4772,147.6436,695.6703,147.1338,692.4331,140.6901,685.24,141.2" style="stroke: #383838; stroke-width: 1.0;"/><path d="M661.02,251.36 C665.06,271.75 670.24,297.88 673.59,314.78 " fill="none" id="PushNotifications&lt;-ProximityNotifications" style="stroke: #383838; stroke-width: 1.0;"/><polygon fill="#383838" points="658.44,238.34,655.6829,245.0032,660.7731,250.111,663.5302,243.4478,658.44,238.34" style="stroke: #383838; stroke-width: 1.0;"/><path d="M705.99,243.37 C754.11,264.48 825.22,295.68 868.98,314.88 " fill="none" id="PushNotifications&lt;-PromotionNotifications" style="stroke: #383838; stroke-width: 1.0;"/><polygon fill="#383838" points="693.98,238.1,697.8641,244.1757,704.9663,242.9271,701.0822,236.8515,693.98,238.1" style="stroke: #383838; stroke-width: 1.0;"/><path d="M543.98,351.09 C599.33,368.62 684.77,395.68 739,412.85 " fill="none" id="ListTrucks-&gt;Filtering" style="stroke: #383838; stroke-width: 1.0;"/><ellipse cx="738.1111" cy="412.565" fill="#383838" rx="6" ry="6" style="stroke: #383838; stroke-width: 1.5;"/><path d="M816.39,457.96 C832.34,474.25 852.19,494.52 866.05,508.69 " fill="none" id="Filtering&lt;-ProximityDistance" style="stroke: #383838; stroke-width: 1.0;"/><polygon fill="#383838" points="807.06,448.42,808.4027,455.505,815.4591,456.9906,814.1164,449.9056,807.06,448.42" style="stroke: #383838; stroke-width: 1.0;"/><path d="M763.32,457.96 C747.21,474.25 727.15,494.52 713.13,508.69 " fill="none" id="Filtering&lt;-FoodType" style="stroke: #383838; stroke-width: 1.0;"/><polygon fill="#383838" points="772.76,448.42,765.6967,449.8727,764.321,456.9513,771.3843,455.4987,772.76,448.42" style="stroke: #383838; stroke-width: 1.0;"/><path d="M1046.4,152.35 C1057.37,168.39 1070.74,187.92 1080.15,201.69 " fill="none" id="Authentication&lt;-Firebase" style="stroke: #383838; stroke-width: 1.0;"/><polygon fill="#FFFFFF" points="1038.92,141.42,1039.0079,148.6306,1045.6976,151.3227,1045.6097,144.1122,1038.92,141.42" style="stroke: #383838; stroke-width: 1.0;"/><path d="M1072.28,147.38 C1104.99,164.27 1148.44,186.7 1177.93,201.92 " fill="none" id="Authentication&lt;-Facebook" style="stroke: #383838; stroke-width: 1.0;"/><polygon fill="#FFFFFF" points="1060.32,141.2,1063.8144,147.5079,1070.981,146.7084,1067.4866,140.4005,1060.32,141.2" style="stroke: #383838; stroke-width: 1.0;"/><path d="M1007.3,152.35 C996.16,168.39 982.59,187.92 973.03,201.69 " fill="none" id="Authentication&lt;-FTTAccount" style="stroke: #383838; stroke-width: 1.0;"/><polygon fill="#FFFFFF" points="1014.89,141.42,1008.1792,144.0591,1008.0341,151.2687,1014.745,148.6296,1014.89,141.42" style="stroke: #383838; stroke-width: 1.0;"/><path d="M112.86,314.98 C148.96,301.5 201.35,284.2 249,277 C319.22,266.39 399.25,292.84 447.14,312.9 " fill="none" id="Favourites-&gt;ListTrucks" style="stroke: #383838; stroke-width: 1.0; stroke-dasharray: 1.0,3.0;"/><polygon fill="#383838" points="451.96,314.95,445.2364,307.7533,447.3569,312.9976,442.1126,315.1182,451.96,314.95" style="stroke: #383838; stroke-width: 1.0;"/><text fill="#000000" font-family="Courier" font-size="13" lengthAdjust="spacingAndGlyphs" textLength="56" x="250" y="281.0669">require</text><path d="M487.02,44.2 C461.49,60.48 423.19,84.9 396.32,102.03 " fill="none" id="R-&gt;A" style="stroke: #383838; stroke-width: 1.0;"/><ellipse cx="396.8398" cy="101.6954" fill="#383838" rx="6" ry="6" style="stroke: #383838; stroke-width: 1.5;"/><path d="M539.53,44.2 C563.69,60.48 599.94,84.9 625.36,102.03 " fill="none" id="R-&gt;Notifications" style="stroke: #383838; stroke-width: 1.0;"/><ellipse cx="624.6889" cy="101.5602" fill="#383838" rx="6" ry="6" style="stroke: #383838; stroke-width: 1.5;"/><path d="M512.64,44.27 C508.55,96.28 496.34,251.38 491.76,309.59 " fill="none" id="R-&gt;ListTrucks" style="stroke: #383838; stroke-width: 1.0;"/><ellipse cx="491.8028" cy="308.9379" fill="#383838" rx="6" ry="6" style="stroke: #383838; stroke-width: 1.5;"/><path d="M580.02,39.23 C676.75,57.14 856.29,90.39 955.86,108.83 " fill="none" id="R-&gt;Authentication" style="stroke: #383838; stroke-width: 1.0;"/><ellipse cx="954.9282" cy="108.6691" fill="#383838" rx="6" ry="6" style="stroke: #383838; stroke-width: 1.5;"/></g></svg>