<?xml version="1.0" encoding="UTF-8" standalone="no"?><svg xmlns="http://www.w3.org/2000/svg" xmlns:xlink="http://www.w3.org/1999/xlink" contentScriptType="application/ecmascript" contentStyleType="text/css" height="640px" preserveAspectRatio="none" style="width:532px;height:640px;" version="1.1" viewBox="0 0 532 640" width="532px" zoomAndPan="magnify"><defs><filter height="300%" id="fk0ueyc1mul29" width="300%" x="-1" y="-1"><feGaussianBlur result="blurOut" stdDeviation="2.0"/><feColorMatrix in="blurOut" result="blurOut2" type="matrix" values="0 0 0 0 0 0 0 0 0 0 0 0 0 0 0 0 0 0 .4 0"/><feOffset dx="4.0" dy="4.0" in="blurOut2" result="blurOut3"/><feBlend in="SourceGraphic" in2="blurOut3" mode="normal"/></filter></defs><g><text fill="#000000" font-family="sans-serif" font-size="18" lengthAdjust="spacingAndGlyphs" textLength="159" x="197.5" y="16.708">Deployment View</text><polygon fill="#FFFFFF" filter="url(#fk0ueyc1mul29)" points="48,54.9531,58,44.9531,381,44.9531,381,223.9531,371,233.9531,48,233.9531,48,54.9531" style="stroke: #000000; stroke-width: 1.5;"/><line style="stroke: #000000; stroke-width: 1.5;" x1="371" x2="380" y1="54.9531" y2="45.9531"/><line style="stroke: #000000; stroke-width: 1.5;" x1="48" x2="371" y1="54.9531" y2="54.9531"/><line style="stroke: #000000; stroke-width: 1.5;" x1="371" x2="371" y1="54.9531" y2="233.9531"/><text fill="#000000" font-family="sans-serif" font-size="14" font-weight="bold" lengthAdjust="spacingAndGlyphs" textLength="106" x="157.5" y="70.9482">Mobile Phone</text><path d="M358,389.9531 C358,379.9531 439,379.9531 439,379.9531 C439,379.9531 520,379.9531 520,389.9531 L520,471.9531 C520,481.9531 439,481.9531 439,481.9531 C439,481.9531 358,481.9531 358,471.9531 L358,389.9531 " fill="#FFFFFF" filter="url(#fk0ueyc1mul29)" style="stroke: #000000; stroke-width: 1.5;"/><path d="M358,389.9531 C358,399.9531 439,399.9531 439,399.9531 C439,399.9531 520,399.9531 520,389.9531 " fill="none" style="stroke: #000000; stroke-width: 1.5;"/><text fill="#000000" font-family="sans-serif" font-size="14" font-weight="bold" lengthAdjust="spacingAndGlyphs" textLength="73" x="402.5" y="414.9482">Database</text><polygon fill="#FFFFFF" filter="url(#fk0ueyc1mul29)" points="140,399.9531,150,389.9531,334,389.9531,334,471.9531,324,481.9531,140,481.9531,140,399.9531" style="stroke: #000000; stroke-width: 1.5;"/><line style="stroke: #000000; stroke-width: 1.5;" x1="324" x2="333" y1="399.9531" y2="390.9531"/><line style="stroke: #000000; stroke-width: 1.5;" x1="140" x2="324" y1="399.9531" y2="399.9531"/><line style="stroke: #000000; stroke-width: 1.5;" x1="324" x2="324" y1="399.9531" y2="481.9531"/><text fill="#000000" font-family="sans-serif" font-size="14" font-weight="bold" lengthAdjust="spacingAndGlyphs" textLength="118" x="174" y="415.9482">Hosting Server</text><path d="M33.4215,539.8243 C40.2918,529.6066 49.4675,529.382 56.7527,539.3446 C63.897,524.6586 77.0025,526.8735 85.2828,538.0936 C93.6978,527.6005 105.667,526.1887 111.7818,540.5465 C115.672,528.0273 125.7359,526.496 133.4161,536.9825 C141.3473,526.4417 152.6822,527.7262 159.2826,538.5906 C165.5015,523.5377 177.5598,523.253 187.6586,534.3862 C195.8781,523.6766 206.2038,524.0208 212.6595,536.304 C218.6829,524.3337 231.3033,521.7318 239.5596,533.8058 C248.373,520.7221 258.4562,525.2858 264.7589,536.4184 C273.1827,524.891 285.5703,525.4637 290.764,539.6811 C296.0599,527.4656 309.1503,524.6479 317.3165,536.5165 C324.9692,527.2087 335.8365,528.9014 340.4813,539.9409 C349.3109,529.7013 358.996,530.0877 366.9211,541.068 C373.0807,525.7581 386.8732,526.1077 394.4782,539.6893 C413.2781,549.269 418.5517,561.5775 401.0902,577.4986 C413.4894,592.4574 413.4445,606.1288 392.8667,613.5695 C385.1342,625.4081 375.1078,623.493 369.7963,611.2502 C361.9611,624.8692 352.5146,625.2274 342.9439,613.0572 C334.9561,625.6241 324.573,622.0455 318.1273,611.4079 C312.8663,626.0094 300.5747,626.3229 291.6265,615.2075 C280.4863,626.9671 270.386,625.6133 262.5081,611.5315 C255.9642,625.6466 246.67,625.6199 237.9384,613.5871 C231.1323,626.971 222.6309,626.9137 213.9383,615.4059 C204.4095,628.934 193.339,625.7157 187.2676,612.0189 C180.5743,624.2288 169.5977,625.3461 160.5352,614.8024 C151.6483,623.5927 142.0793,622.4785 136.0211,611.3255 C130.2533,624.2784 119.8714,624.2688 110.859,614.9993 C103.3766,627.3795 90.358,626.4063 83.0349,614.8142 C75.5898,627.5044 65.3683,624.4176 58.3199,614.3828 C49.8013,626.8293 37.8799,627.9035 30.9024,612.8465 C14.9147,604.3405 14.0805,586.806 28.1479,576.0502 C12.9113,562.5183 15.4323,548.5193 33.4215,539.8243 " fill="#FFFFFF" style="stroke: #000000; stroke-width: 1.5;"/><text fill="#000000" font-family="sans-serif" font-size="14" font-weight="bold" lengthAdjust="spacingAndGlyphs" textLength="45" x="188" y="556.9482">Cloud</text><rect fill="#FEFECE" filter="url(#fk0ueyc1mul29)" height="36.2969" style="stroke: #A80036; stroke-width: 1.5;" width="116" x="64" y="84.9531"/><rect fill="#FEFECE" height="5" style="stroke: #A80036; stroke-width: 1.5;" width="10" x="59" y="89.9531"/><rect fill="#FEFECE" height="5" style="stroke: #A80036; stroke-width: 1.5;" width="10" x="59" y="111.25"/><text fill="#000000" font-family="sans-serif" font-size="14" lengthAdjust="spacingAndGlyphs" textLength="96" x="74" y="107.9482">User Interface</text><rect fill="#FEFECE" filter="url(#fk0ueyc1mul29)" height="36.2969" style="stroke: #A80036; stroke-width: 1.5;" width="185" x="63.5" y="181.9531"/><rect fill="#FEFECE" height="5" style="stroke: #A80036; stroke-width: 1.5;" width="10" x="58.5" y="186.9531"/><rect fill="#FEFECE" height="5" style="stroke: #A80036; stroke-width: 1.5;" width="10" x="58.5" y="208.25"/><text fill="#000000" font-family="sans-serif" font-size="14" lengthAdjust="spacingAndGlyphs" textLength="165" x="73.5" y="204.9482">React Native Application</text><rect fill="#FEFECE" filter="url(#fk0ueyc1mul29)" height="36.2969" style="stroke: #A80036; stroke-width: 1.5;" width="150" x="215" y="84.9531"/><rect fill="#FEFECE" height="5" style="stroke: #A80036; stroke-width: 1.5;" width="10" x="210" y="89.9531"/><rect fill="#FEFECE" height="5" style="stroke: #A80036; stroke-width: 1.5;" width="10" x="210" y="111.25"/><text fill="#000000" font-family="sans-serif" font-size="14" lengthAdjust="spacingAndGlyphs" textLength="130" x="225" y="107.9482">Notification Service</text><rect fill="#FEFECE" filter="url(#fk0ueyc1mul29)" height="36.2969" style="stroke: #A80036; stroke-width: 1.5;" width="129" x="374.5" y="429.9531"/><rect fill="#FEFECE" height="5" style="stroke: #A80036; stroke-width: 1.5;" width="10" x="369.5" y="434.9531"/><rect fill="#FEFECE" height="5" style="stroke: #A80036; stroke-width: 1.5;" width="10" x="369.5" y="456.25"/><text fill="#000000" font-family="sans-serif" font-size="14" lengthAdjust="spacingAndGlyphs" textLength="109" x="384.5" y="452.9482">Client Database</text><rect fill="#FEFECE" filter="url(#fk0ueyc1mul29)" height="36.2969" style="stroke: #A80036; stroke-width: 1.5;" width="82" x="224" y="429.9531"/><rect fill="#FEFECE" height="5" style="stroke: #A80036; stroke-width: 1.5;" width="10" x="219" y="434.9531"/><rect fill="#FEFECE" height="5" style="stroke: #A80036; stroke-width: 1.5;" width="10" x="219" y="456.25"/><text fill="#000000" font-family="sans-serif" font-size="14" lengthAdjust="spacingAndGlyphs" textLength="62" x="234" y="452.9482">REST API</text><rect fill="#FEFECE" filter="url(#fk0ueyc1mul29)" height="36.2969" style="stroke: #A80036; stroke-width: 1.5;" width="174" x="209" y="565.9531"/><rect fill="#FEFECE" height="5" style="stroke: #A80036; stroke-width: 1.5;" width="10" x="204" y="570.9531"/><rect fill="#FEFECE" height="5" style="stroke: #A80036; stroke-width: 1.5;" width="10" x="204" y="592.25"/><text fill="#000000" font-family="sans-serif" font-size="14" lengthAdjust="spacingAndGlyphs" textLength="154" x="219" y="588.9482">Authentication Service</text><rect fill="#FEFECE" filter="url(#fk0ueyc1mul29)" height="36.2969" style="stroke: #A80036; stroke-width: 1.5;" width="136" x="38" y="565.9531"/><rect fill="#FEFECE" height="5" style="stroke: #A80036; stroke-width: 1.5;" width="10" x="33" y="570.9531"/><rect fill="#FEFECE" height="5" style="stroke: #A80036; stroke-width: 1.5;" width="10" x="33" y="592.25"/><text fill="#000000" font-family="sans-serif" font-size="14" lengthAdjust="spacingAndGlyphs" textLength="116" x="48" y="588.9482">Google Maps API</text><rect fill="#FEFECE" filter="url(#fk0ueyc1mul29)" height="36.2969" style="stroke: #A80036; stroke-width: 1.5;" width="117" x="182.5" y="280.9531"/><rect fill="#FEFECE" height="5" style="stroke: #A80036; stroke-width: 1.5;" width="10" x="177.5" y="285.9531"/><rect fill="#FEFECE" height="5" style="stroke: #A80036; stroke-width: 1.5;" width="10" x="177.5" y="307.25"/><text fill="#000000" font-family="sans-serif" font-size="14" lengthAdjust="spacingAndGlyphs" textLength="97" x="192.5" y="303.9482">Load Balancer</text><path d="M420.6,466.1931 C393.14,491.9231 341.75,540.0831 314.33,565.7731 " fill="none" id="DB-AS" style="stroke: #A80036; stroke-width: 1.0;"/><text fill="#000000" font-family="sans-serif" font-size="13" lengthAdjust="spacingAndGlyphs" textLength="32" x="385" y="511.02">HTTP</text><path d="M128.24,121.3731 C134.37,138.5231 143.68,164.5331 149.8,181.6431 " fill="none" id="UI-RN" style="stroke: #A80036; stroke-width: 1.0;"/><path d="M180.08,102.9531 C191.67,102.9531 203.26,102.9531 214.86,102.9531 " fill="none" id="UI-NS" style="stroke: #A80036; stroke-width: 1.0;"/><path d="M171.2,218.2931 C186.67,235.9531 210.51,263.1631 225.94,280.7631 " fill="none" id="RN-LB" style="stroke: #A80036; stroke-width: 1.0;"/><path d="M243.8,317.1031 C248.42,345.4331 257.6,401.6631 262.22,429.9131 " fill="none" id="LB-RAPI" style="stroke: #A80036; stroke-width: 1.0;"/><path d="M153.72,218.3631 C145.37,282.1431 116.51,502.6531 108.23,565.8831 " fill="none" id="RN-GMA" style="stroke: #A80036; stroke-width: 1.0;"/><text fill="#000000" font-family="sans-serif" font-size="13" lengthAdjust="spacingAndGlyphs" textLength="32" x="137" y="360.02">HTTP</text><path d="M306.24,447.9531 C326.54,447.9531 351.48,447.9531 374.25,447.9531 " fill="none" id="RAPI-DB" style="stroke: #A80036; stroke-width: 1.0;"/><text fill="#000000" font-family="sans-serif" font-size="13" lengthAdjust="spacingAndGlyphs" textLength="32" x="324.25" y="441.02">HTTP</text><path d="M268.99,466.1931 C274.94,491.9231 286.08,540.0831 292.03,565.7731 " fill="none" id="RAPI-AS" style="stroke: #A80036; stroke-width: 1.0;"/><text fill="#000000" font-family="sans-serif" font-size="13" lengthAdjust="spacingAndGlyphs" textLength="32" x="280" y="511.02">HTTP</text></g></svg>