<?xml version="1.0" encoding="UTF-8" standalone="no"?><svg xmlns="http://www.w3.org/2000/svg" xmlns:xlink="http://www.w3.org/1999/xlink" contentScriptType="application/ecmascript" contentStyleType="text/css" height="542px" preserveAspectRatio="none" style="width:1264px;height:542px;" version="1.1" viewBox="0 0 1264 542" width="1264px" zoomAndPan="magnify"><defs/><g><rect fill="#F8F8F8" height="34" style="stroke: #000000; stroke-width: 1.5;" width="92" x="319" y="103"/><text fill="#000000" font-family="Courier" font-size="14" lengthAdjust="spacingAndGlyphs" textLength="72" x="329" y="123.5547">User role</text><rect fill="#F8F8F8" height="34" style="stroke: #000000; stroke-width: 1.5;" width="124" x="593" y="103"/><text fill="#000000" font-family="Courier" font-size="14" lengthAdjust="spacingAndGlyphs" textLength="104" x="603" y="123.5547">Notifications</text><rect fill="#F8F8F8" height="34" style="stroke: #000000; stroke-width: 1.5;" width="108" x="436" y="307"/><text fill="#000000" font-family="Courier" font-size="14" lengthAdjust="spacingAndGlyphs" textLength="88" x="446" y="327.5547">List trucks</text><rect fill="#F8F8F8" height="34" style="stroke: #000000; stroke-width: 1.5;" width="132" x="961" y="103"/><text fill="#000000" font-family="Courier" font-size="14" lengthAdjust="spacingAndGlyphs" textLength="112" x="971" y="123.5547">Authentication</text><rect fill="#F8F8F8" height="34" style="stroke: #000000; stroke-width: 1.5;" width="124" x="132" y="198"/><text fill="#000000" font-family="Courier" font-size="14" lengthAdjust="spacingAndGlyphs" textLength="104" x="142" y="218.5547">Student space</text><rect fill="#F8F8F8" height="34" style="stroke: #000000; stroke-width: 1.5;" width="148" x="291" y="198"/><text fill="#000000" font-family="Courier" font-size="14" lengthAdjust="spacingAndGlyphs" textLength="128" x="301" y="218.5547">Restaurant space</text><rect fill="#F8F8F8" height="34" style="stroke: #000000; stroke-width: 1.5;" width="92" x="309" y="307"/><text fill="#000000" font-family="Courier" font-size="14" lengthAdjust="spacingAndGlyphs" textLength="72" x="319" y="327.5547">My trucks</text><rect fill="#F8F8F8" height="34" style="stroke: #000000; stroke-width: 1.5;" width="124" x="219" y="402"/><text fill="#000000" font-family="Courier" font-size="14" lengthAdjust="spacingAndGlyphs" textLength="104" x="229" y="422.5547">Manage trucks</text><rect fill="#F8F8F8" height="34" style="stroke: #000000; stroke-width: 1.5;" width="172" x="378" y="402"/><text fill="#000000" font-family="Courier" font-size="14" lengthAdjust="spacingAndGlyphs" textLength="152" x="388" y="422.5547">Modify informations</text><rect fill="#F8F8F8" height="34" style="stroke: #000000; stroke-width: 1.5;" width="124" x="585" y="402"/><text fill="#000000" font-family="Courier" font-size="14" lengthAdjust="spacingAndGlyphs" textLength="104" x="595" y="422.5547">Promote truck</text><rect fill="#F8F8F8" height="34" style="stroke: #000000; stroke-width: 1.5;" width="124" x="219" y="497"/><text fill="#000000" font-family="Courier" font-size="14" lengthAdjust="spacingAndGlyphs" textLength="104" x="229" y="517.5547">Add new truck</text><rect fill="#F8F8F8" height="34" style="stroke: #000000; stroke-width: 1.5;" width="116" x="378" y="497"/><text fill="#000000" font-family="Courier" font-size="14" lengthAdjust="spacingAndGlyphs" textLength="96" x="388" y="517.5547">Remove truck</text><rect fill="#F8F8F8" height="34" style="stroke: #000000; stroke-width: 1.5;" width="100" x="84" y="497"/><text fill="#000000" font-family="Courier" font-size="14" lengthAdjust="spacingAndGlyphs" textLength="80" x="94" y="517.5547">Hide truck</text><rect fill="#F8F8F8" height="34" style="stroke: #000000; stroke-width: 1.5;" width="100" x="165" y="307"/><text fill="#000000" font-family="Courier" font-size="14" lengthAdjust="spacingAndGlyphs" textLength="80" x="175" y="327.5547">My reviews</text><rect fill="#F8F8F8" height="34" style="stroke: #000000; stroke-width: 1.5;" width="124" x="6" y="307"/><text fill="#000000" font-family="Courier" font-size="14" lengthAdjust="spacingAndGlyphs" textLength="104" x="16" y="327.5547">My favourites</text><rect fill="#F8F8F8" height="34" style="stroke: #000000; stroke-width: 1.5;" width="52" x="21" y="402"/><text fill="#000000" font-family="Courier" font-size="14" lengthAdjust="spacingAndGlyphs" textLength="32" x="31" y="422.5547">Rate</text><rect fill="#F8F8F8" height="34" style="stroke: #000000; stroke-width: 1.5;" width="76" x="108" y="402"/><text fill="#000000" font-family="Courier" font-size="14" lengthAdjust="spacingAndGlyphs" textLength="56" x="118" y="422.5547">Comment</text><rect fill="#F8F8F8" height="34" style="stroke: #000000; stroke-width: 1.5;" width="164" x="573" y="198"/><text fill="#000000" font-family="Courier" font-size="14" lengthAdjust="spacingAndGlyphs" textLength="144" x="583" y="218.5547">Push notifications</text><rect fill="#F8F8F8" height="34" style="stroke: #000000; stroke-width: 1.5;" width="100" x="772" y="198"/><text fill="#000000" font-family="Courier" font-size="14" lengthAdjust="spacingAndGlyphs" textLength="80" x="782" y="218.5547">Newsletter</text><rect fill="#F8F8F8" height="34" style="stroke: #000000; stroke-width: 1.5;" width="196" x="579" y="307"/><text fill="#000000" font-family="Courier" font-size="14" lengthAdjust="spacingAndGlyphs" textLength="176" x="589" y="327.5547">Proximity notification</text><rect fill="#F8F8F8" height="34" style="stroke: #000000; stroke-width: 1.5;" width="196" x="810" y="307"/><text fill="#000000" font-family="Courier" font-size="14" lengthAdjust="spacingAndGlyphs" textLength="176" x="820" y="327.5547">Promotion notification</text><rect fill="#F8F8F8" height="34" style="stroke: #000000; stroke-width: 1.5;" width="92" x="744" y="402"/><text fill="#000000" font-family="Courier" font-size="14" lengthAdjust="spacingAndGlyphs" textLength="72" x="754" y="422.5547">Filtering</text><rect fill="#F8F8F8" height="34" style="stroke: #000000; stroke-width: 1.5;" width="212" x="777" y="497"/><text fill="#000000" font-family="Courier" font-size="14" lengthAdjust="spacingAndGlyphs" textLength="192" x="787" y="517.5547">Proximity distance range</text><rect fill="#F8F8F8" height="34" style="stroke: #000000; stroke-width: 1.5;" width="92" x="650" y="497"/><text fill="#000000" font-family="Courier" font-size="14" lengthAdjust="spacingAndGlyphs" textLength="72" x="660" y="517.5547">Food type</text><rect fill="#F8F8F8" height="34" style="stroke: #000000; stroke-width: 1.5;" width="84" x="1050" y="198"/><text fill="#000000" font-family="Courier" font-size="14" lengthAdjust="spacingAndGlyphs" textLength="64" x="1060" y="218.5547">Firebase</text><rect fill="#F8F8F8" height="34" style="stroke: #000000; stroke-width: 1.5;" width="84" x="1169" y="198"/><text fill="#000000" font-family="Courier" font-size="14" lengthAdjust="spacingAndGlyphs" textLength="64" x="1179" y="218.5547">Facebook</text><rect fill="#F8F8F8" height="34" style="stroke: #000000; stroke-width: 1.5;" width="108" x="907" y="198"/><text fill="#000000" font-family="Courier" font-size="14" lengthAdjust="spacingAndGlyphs" textLength="88" x="917" y="218.5547">FTT account</text><rect fill="#F8F8F8" height="34" style="stroke: #000000; stroke-width: 1.5;" width="132" x="448" y="8"/><text fill="#000000" font-family="Courier" font-size="14" lengthAdjust="spacingAndGlyphs" textLength="112" x="458" y="28.5547">Food Truck App</text><path d="M335.21,137.2 C305.3,153.47 259.27,178.5 227.95,195.53 " fill="none" id="A-&gt;I" style="stroke: #383838; stroke-width: 1.0;"/><ellipse cx="228.7107" cy="195.1229" fill="#383838" rx="6" ry="6" style="stroke: #383838; stroke-width: 1.5;"/><path d="M365,137.2 C365,152.67 365,176.06 365,192.96 " fill="none" id="A-&gt;J" style="stroke: #383838; stroke-width: 1.0;"/><ellipse cx="365" cy="191.99" fill="#383838" rx="6" ry="6" style="stroke: #383838; stroke-width: 1.5;"/><path d="M342.11,341.2 C329.59,356.94 310.54,380.87 297.05,397.83 " fill="none" id="MyTrucks-&gt;ManageTrucks" style="stroke: #383838; stroke-width: 1.0;"/><ellipse cx="297.484" cy="397.3014" fill="#383838" rx="6" ry="6" style="stroke: #383838; stroke-width: 1.5;"/><path d="M373.99,341.2 C392.74,357.2 421.44,381.69 441.37,398.69 " fill="none" id="MyTrucks-&gt;ModifyInformations" style="stroke: #383838; stroke-width: 1.0;"/><ellipse cx="440.666" cy="398.0952" fill="#383838" rx="6" ry="6" style="stroke: #383838; stroke-width: 1.5;"/><path d="M401.27,339.74 C452.94,356.19 536.53,382.82 591.63,400.37 " fill="none" id="MyTrucks-&gt;Promote" style="stroke: #383838; stroke-width: 1.0;"/><ellipse cx="590.8261" cy="400.0995" fill="#FFFFFF" rx="6" ry="6" style="stroke: #383838; stroke-width: 1.5;"/><path d="M281,436.2 C281,451.67 281,475.06 281,491.96 " fill="none" id="ManageTrucks-&gt;AddTruck" style="stroke: #383838; stroke-width: 1.0;"/><ellipse cx="281" cy="490.99" fill="#383838" rx="6" ry="6" style="stroke: #383838; stroke-width: 1.5;"/><path d="M308,436.2 C335,452.4 376.5,477.3 404.87,494.32 " fill="none" id="ManageTrucks-&gt;RemoveTruck" style="stroke: #383838; stroke-width: 1.0;"/><ellipse cx="404.165" cy="493.903" fill="#383838" rx="6" ry="6" style="stroke: #383838; stroke-width: 1.5;"/><path d="M255.39,436.2 C229.89,452.34 190.76,477.09 163.85,494.11 " fill="none" id="ManageTrucks-&gt;HideTruck" style="stroke: #383838; stroke-width: 1.0;"/><ellipse cx="164.3825" cy="493.7854" fill="#FFFFFF" rx="6" ry="6" style="stroke: #383838; stroke-width: 1.5;"/><path d="M362.27,245.22 C360.41,265.1 358.02,290.67 356.5,306.95 " fill="none" id="J&lt;-MyTrucks" style="stroke: #383838; stroke-width: 1.0;"/><polygon fill="#383838" points="363.48,232.25,358.937,237.8501,362.3591,244.1975,366.9021,238.5974,363.48,232.25" style="stroke: #383838; stroke-width: 1.0;"/><path d="M197.19,232.25 C200.85,250.9 206.86,281.53 210.87,301.98 " fill="none" id="I-&gt;Reviews" style="stroke: #383838; stroke-width: 1.0;"/><ellipse cx="210.6832" cy="301.0645" fill="#383838" rx="6" ry="6" style="stroke: #383838; stroke-width: 1.5;"/><path d="M175.14,232.02 C152.68,251.09 115.19,282.92 91.04,303.43 " fill="none" id="I-&gt;Favourites" style="stroke: #383838; stroke-width: 1.0;"/><ellipse cx="91.5612" cy="302.9836" fill="#383838" rx="6" ry="6" style="stroke: #383838; stroke-width: 1.5;"/><path d="M174.28,347.54 C142.82,364.96 100.22,388.54 73.17,403.51 " fill="none" id="Reviews&lt;-Rate" style="stroke: #383838; stroke-width: 1.0;"/><polygon fill="#383838" points="185.74,341.2,178.5535,340.605,175.2402,347.0098,182.4267,347.6048,185.74,341.2" style="stroke: #383838; stroke-width: 1.0;"/><path d="M195.2,351.69 C183.14,367.95 168.13,388.17 157.88,401.99 " fill="none" id="Reviews&lt;-Comment" style="stroke: #383838; stroke-width: 1.0;"/><polygon fill="#383838" points="202.98,341.2,196.1933,343.6373,195.8329,350.8394,202.6196,348.4021,202.98,341.2" style="stroke: #383838; stroke-width: 1.0;"/><path d="M655,150.54 C655,166.26 655,184.97 655,197.99 " fill="none" id="Notifications&lt;-PushNotifications" style="stroke: #383838; stroke-width: 1.0;"/><polygon fill="#383838" points="655,137.2,651,143.2,655,149.2,659,143.2,655,137.2" style="stroke: #383838; stroke-width: 1.0;"/><path d="M695.52,143.57 C725.75,160.4 766.3,182.98 793.24,197.99 " fill="none" id="Notifications&lt;-Newsletter" style="stroke: #383838; stroke-width: 1.0;"/><polygon fill="#383838" points="684.09,137.2,687.3842,143.6147,694.5724,143.0411,691.2783,136.6264,684.09,137.2" style="stroke: #383838; stroke-width: 1.0;"/><path d="M661.01,245.22 C665.1,265.1 670.35,290.67 673.7,306.95 " fill="none" id="PushNotifications&lt;-ProximityNotifications" style="stroke: #383838; stroke-width: 1.0;"/><polygon fill="#383838" points="658.34,232.25,655.6274,238.9315,660.7517,244.0052,663.4642,237.3237,658.34,232.25" style="stroke: #383838; stroke-width: 1.0;"/><path d="M704.95,237.13 C753.41,257.62 825.88,288.27 869.86,306.87 " fill="none" id="PushNotifications&lt;-PromotionNotifications" style="stroke: #383838; stroke-width: 1.0;"/><polygon fill="#383838" points="692.88,232.02,696.8505,238.0395,703.9342,236.6897,699.9636,230.6701,692.88,232.02" style="stroke: #383838; stroke-width: 1.0;"/><path d="M541.91,341.09 C597.1,358.2 683.83,385.09 738.76,402.11 " fill="none" id="ListTrucks-&gt;Filtering" style="stroke: #383838; stroke-width: 1.0;"/><ellipse cx="737.9064" cy="401.8619" fill="#383838" rx="6" ry="6" style="stroke: #383838; stroke-width: 1.5;"/><path d="M815.76,445.76 C832.17,462.17 852.91,482.91 866.99,496.99 " fill="none" id="Filtering&lt;-ProximityDistance" style="stroke: #383838; stroke-width: 1.0;"/><polygon fill="#383838" points="806.2,436.2,807.6142,443.2711,814.6853,444.6853,813.2711,437.6142,806.2,436.2" style="stroke: #383838; stroke-width: 1.0;"/><path d="M763.97,445.76 C747.38,462.17 726.41,482.91 712.19,496.99 " fill="none" id="Filtering&lt;-FoodType" style="stroke: #383838; stroke-width: 1.0;"/><polygon fill="#383838" points="773.63,436.2,766.5524,437.5813,765.1053,444.6457,772.1829,443.2644,773.63,436.2" style="stroke: #383838; stroke-width: 1.0;"/><path d="M1045.98,148.16 C1057.29,164.33 1071.25,184.31 1080.81,197.99 " fill="none" id="Authentication&lt;-Firebase" style="stroke: #383838; stroke-width: 1.0;"/><polygon fill="#FFFFFF" points="1038.32,137.2,1038.4761,144.4094,1045.1909,147.0382,1045.0349,139.8288,1038.32,137.2" style="stroke: #383838; stroke-width: 1.0;"/><path d="M1070.77,143.12 C1104.16,160 1149.36,182.85 1179.32,197.99 " fill="none" id="Authentication&lt;-Facebook" style="stroke: #383838; stroke-width: 1.0;"/><polygon fill="#FFFFFF" points="1059.05,137.2,1062.5969,143.4785,1069.7566,142.6192,1066.2097,136.3407,1059.05,137.2" style="stroke: #383838; stroke-width: 1.0;"/><path d="M1007.72,148.16 C996.25,164.33 982.07,184.31 972.36,197.99 " fill="none" id="Authentication&lt;-FTTAccount" style="stroke: #383838; stroke-width: 1.0;"/><polygon fill="#FFFFFF" points="1015.5,137.2,1008.7668,139.7816,1008.5601,146.9897,1015.2933,144.4081,1015.5,137.2" style="stroke: #383838; stroke-width: 1.0;"/><path d="M112.95,306.94 C149.1,294.18 201.52,277.81 249,271 C319.11,260.95 399.17,285.98 447.1,304.98 " fill="none" id="Favourites-&gt;ListTrucks" style="stroke: #383838; stroke-width: 1.0; stroke-dasharray: 1.0,3.0;"/><polygon fill="#383838" points="451.92,306.91,445.0568,299.8463,447.2796,305.0481,442.0778,307.2709,451.92,306.91" style="stroke: #383838; stroke-width: 1.0;"/><text fill="#000000" font-family="Courier" font-size="13" lengthAdjust="spacingAndGlyphs" textLength="56" x="250" y="272.8008">require</text><path d="M488.05,42.2 C462.09,58.4 422.2,83.3 394.92,100.32 " fill="none" id="R-&gt;A" style="stroke: #383838; stroke-width: 1.0;"/><ellipse cx="395.7528" cy="99.8177" fill="#383838" rx="6" ry="6" style="stroke: #383838; stroke-width: 1.5;"/><path d="M538.56,42.2 C563.02,58.34 600.56,83.09 626.37,100.11 " fill="none" id="R-&gt;Notifications" style="stroke: #383838; stroke-width: 1.0;"/><ellipse cx="625.7146" cy="99.6816" fill="#383838" rx="6" ry="6" style="stroke: #383838; stroke-width: 1.5;"/><path d="M512.68,42.39 C508.61,92.69 496.31,244.88 491.74,301.49 " fill="none" id="R-&gt;ListTrucks" style="stroke: #383838; stroke-width: 1.0;"/><ellipse cx="491.8169" cy="300.6806" fill="#383838" rx="6" ry="6" style="stroke: #383838; stroke-width: 1.5;"/><path d="M580.02,37.97 C676.75,55.5 856.29,88.05 955.86,106.1 " fill="none" id="R-&gt;Authentication" style="stroke: #383838; stroke-width: 1.0;"/><ellipse cx="954.9251" cy="105.9358" fill="#383838" rx="6" ry="6" style="stroke: #383838; stroke-width: 1.5;"/></g></svg>