<?xml version="1.0" encoding="UTF-8" standalone="no"?><svg xmlns="http://www.w3.org/2000/svg" xmlns:xlink="http://www.w3.org/1999/xlink" contentScriptType="application/ecmascript" contentStyleType="text/css" height="402px" preserveAspectRatio="none" style="width:365px;height:402px;" version="1.1" viewBox="0 0 365 402" width="365px" zoomAndPan="magnify"><defs/><g><rect fill="#FFFFFF" height="62.9766" style="stroke: #444444; stroke-width: 1.0; stroke-dasharray: 7.0,7.0;" width="90" x="103.5" y="171"/><text fill="#000000" font-family="sans-serif" font-size="0" font-style="italic" lengthAdjust="spacingAndGlyphs" textLength="0" x="148.5" y="181">«boundary»</text><text fill="#444444" font-family="sans-serif" font-size="16" font-weight="bold" lengthAdjust="spacingAndGlyphs" textLength="70" x="113.5" y="206.4688">FTT App</text><text fill="#444444" font-family="sans-serif" font-size="12" lengthAdjust="spacingAndGlyphs" textLength="48" x="124.5" y="221.4453">[System]</text><rect fill="#08427B" height="85.9531" style="stroke: #073B6F; stroke-width: 1.5;" width="92" x="14.5" y="8"/><text fill="#FFFFFF" font-family="sans-serif" font-size="12" font-style="italic" lengthAdjust="spacingAndGlyphs" textLength="52" x="34.5" y="29.6016">«person»</text><text fill="#FFFFFF" font-family="sans-serif" font-size="16" font-weight="bold" lengthAdjust="spacingAndGlyphs" textLength="72" x="24.5" y="47.6016">Students</text><text fill="#FFFFFF" font-family="sans-serif" font-size="14" lengthAdjust="spacingAndGlyphs" textLength="0" x="62.5" y="64.5117"/><text fill="#FFFFFF" font-family="sans-serif" font-size="14" lengthAdjust="spacingAndGlyphs" textLength="0" x="62.5" y="81"/><rect fill="#08427B" height="85.9531" style="stroke: #073B6F; stroke-width: 1.5;" width="117" x="179" y="8"/><text fill="#FFFFFF" font-family="sans-serif" font-size="12" font-style="italic" lengthAdjust="spacingAndGlyphs" textLength="52" x="211.5" y="29.6016">«person»</text><text fill="#FFFFFF" font-family="sans-serif" font-size="16" font-weight="bold" lengthAdjust="spacingAndGlyphs" textLength="97" x="189" y="47.6016">Restaurants</text><text fill="#FFFFFF" font-family="sans-serif" font-size="14" lengthAdjust="spacingAndGlyphs" textLength="0" x="239.5" y="64.5117"/><text fill="#FFFFFF" font-family="sans-serif" font-size="14" lengthAdjust="spacingAndGlyphs" textLength="0" x="239.5" y="81"/><rect fill="#999999" height="52.9766" style="stroke: #8A8A8A; stroke-width: 1.5;" width="125" x="6" y="339"/><text fill="#FFFFFF" font-family="sans-serif" font-size="12" font-style="italic" lengthAdjust="spacingAndGlyphs" textLength="105" x="16" y="360.6016">«external_system»</text><text fill="#FFFFFF" font-family="sans-serif" font-size="16" font-weight="bold" lengthAdjust="spacingAndGlyphs" textLength="77" x="30" y="378.6016">Publibike</text><rect fill="#999999" height="52.9766" style="stroke: #8A8A8A; stroke-width: 1.5;" width="125" x="167" y="339"/><text fill="#FFFFFF" font-family="sans-serif" font-size="12" font-style="italic" lengthAdjust="spacingAndGlyphs" textLength="105" x="177" y="360.6016">«external_system»</text><text fill="#FFFFFF" font-family="sans-serif" font-size="16" font-weight="bold" lengthAdjust="spacingAndGlyphs" textLength="68" x="195.5" y="378.6016">Firebase</text><path d="M50.5,94.33 C48.99,109.82 49.98,126.97 57.5,141 C66.51,157.81 82.48,170.75 98.56,180.27 " fill="none" id="user_s-&gt;boundary" style="stroke: #666666; stroke-width: 1.0;"/><polygon fill="#666666" points="103.09,182.86,97.2773,174.9094,98.7541,180.3701,93.2934,181.8469,103.09,182.86" style="stroke: #666666; stroke-width: 1.0;"/><text fill="#666666" font-family="sans-serif" font-size="13" font-weight="bold" lengthAdjust="spacingAndGlyphs" textLength="135" x="58.5" y="137.5684">Look for food trucks</text><path d="M221.75,94.41 C215.39,109.58 207.43,126.49 198.5,141 C193.1,149.78 186.52,158.65 179.94,166.79 " fill="none" id="user_r-&gt;boundary" style="stroke: #666666; stroke-width: 1.0;"/><polygon fill="#666666" points="176.72,170.72,185.5176,166.2926,179.8885,166.8521,179.329,161.223,176.72,170.72" style="stroke: #666666; stroke-width: 1.0;"/><text fill="#666666" font-family="sans-serif" font-size="13" font-weight="bold" lengthAdjust="spacingAndGlyphs" textLength="126" x="208.5" y="137.5684">Upload new trucks</text><path d="M103.48,225.24 C88.6,234.89 73.74,247.79 65.5,264 C54.63,285.37 56.29,312.74 60.16,333.52 " fill="none" id="boundary-&gt;publibike" style="stroke: #666666; stroke-width: 1.0;"/><polygon fill="#666666" points="61.19,338.66,63.3365,329.0479,60.2039,333.7582,55.4936,330.6256,61.19,338.66" style="stroke: #666666; stroke-width: 1.0;"/><text fill="#666666" font-family="sans-serif" font-size="13" font-weight="bold" lengthAdjust="spacingAndGlyphs" textLength="119" x="66.5" y="284.5684">Transport service</text><text fill="#666666" font-family="sans-serif" font-size="12" font-style="italic" lengthAdjust="spacingAndGlyphs" textLength="119" x="66.5" y="298.9121">[Bikes near the user]</text><path d="M171.76,234.01 C178.31,243.34 185.1,253.84 190.5,264 C202.53,286.64 212.86,313.84 219.86,334.23 " fill="none" id="boundary-&gt;firebase" style="stroke: #666666; stroke-width: 1.0;"/><polygon fill="#666666" points="221.47,338.99,222.3478,329.1803,219.8546,334.2581,214.7768,331.765,221.47,338.99" style="stroke: #666666; stroke-width: 1.0;"/><text fill="#666666" font-family="sans-serif" font-size="13" font-weight="bold" lengthAdjust="spacingAndGlyphs" textLength="100" x="232" y="277.5684">Authentication</text><text fill="#666666" font-family="sans-serif" font-size="12" font-style="italic" lengthAdjust="spacingAndGlyphs" textLength="139" x="210.5" y="291.9121">[Sign Up, Sign In into the</text><text fill="#666666" font-family="sans-serif" font-size="12" font-style="italic" lengthAdjust="spacingAndGlyphs" textLength="67" x="248.5" y="306.0449">application]</text></g></svg>